<?xml version="1.0" encoding="UTF-8"?>
<svg id="Vrstva_2" data-name="Vrstva 2" xmlns="http://www.w3.org/2000/svg" viewBox="0 0 40.78 31.19">
  <defs>
    <style>
      .cls-1 {
        fill: #dadada;
        stroke: #26251d;
        stroke-linecap: round;
        stroke-linejoin: round;
      }

      .cls-2 {
        fill: #010101;
        stroke-width: 0px;
      }
    </style>
  </defs>
  <g id="Vrstva_1-2" data-name="Vrstva 1">
    <path class="cls-1" d="M.5,25.79V.5h2.01c6.41-.12,8.88,2.13,9.9,4.41.8,1.79,1.59,5.59,4.01,6.81.34.17.63.25.82.29.57.06,1.15.12,1.72.18.15.01.3.02.46.02v1.89c-.08,0-.16,0-.23,0-.12,0-.2.01-.23.01-.13.01-.57.04-1.7.11-.17.01-.43.05-.75.17-2.37.9-3.16,4.98-4.11,6.99-1.05,2.23-3.52,4.54-9.9,4.41H.5Z"/>
    <path class="cls-2" d="M27.35,26.63c-2.22,1.66-3.99,2.93-9.59,4.55,9.5-5.39,12.83-10.95,12.7-18.79-.05-2.76-2.54-6.01-6.13-5.92-.78.02-3.46-.29-5.58,3.26.46-.33,1.02-.52,1.63-.52,1.57,0,2.84,1.27,2.84,2.84s-1.27,2.84-2.84,2.84-2.84-1.27-2.84-2.84c0-.24.04-.47.09-.69l-.09.05c.34-2.94,2-4.7,3.21-5.52,1.53-1.03,3.41-1.69,5.27-1.62,6.37.23,7.65,5.59,7.9,7.32.97,6.8-2.93,12.32-6.56,15.03ZM38.96,6.77c-1,0-1.82.81-1.82,1.82s.81,1.82,1.82,1.82,1.82-.81,1.82-1.82-.81-1.82-1.82-1.82ZM38.96,15.34c-1,0-1.82.81-1.82,1.82s.81,1.82,1.82,1.82,1.82-.81,1.82-1.82-.81-1.82-1.82-1.82Z"/>
  </g>
</svg>