<?xml version="1.0" encoding="UTF-8"?>
<svg id="Vrstva_2" data-name="Vrstva 2" xmlns="http://www.w3.org/2000/svg" viewBox="0 0 52.29 80.06">
  <defs>
    <style>
      .cls-1 {
        fill: #dadada;
        stroke: #26251d;
        stroke-linejoin: round;
      }

      .cls-2 {
        fill: #26251d;
        stroke-width: 0px;
      }
    </style>
  </defs>
  <g id="Vrstva_1-2" data-name="Vrstva 1">
    <path class="cls-2" d="M24.65,41.39c.5,3.03,2.19,6.19,4.59,8.01,1.45,1.09,3.62,2.1,5.44,2.33,1,.13,2.02.02,3.02.05.18,0-.08,2.86-.1,3.11-.16,1.61-.48,3.22-1.24,4.66-.79,1.49-2.27,2.99-4.02,3.13-1.14.1-2.28-.23-3.3-.72-.5-.24-.98-.52-1.45-.82-.26-.17-.94-.85-1.21-.83,1.64-.06,3.93.1,4.97-1.47,1.21-1.84-.23-5.31-2.41-5.72-2.09-.4-3.98,1.83-4.37,3.66-.5,2.34,1.02,4.53,2.97,5.69,1.03.61,2.19.93,3.39.92,1.39-.02,2.93-.15,4.04-1.06,1-.82,2.15-2.32,2.58-3.55.37-1.04.52-2.13.72-3.21.19-1.05.4-2.18.8-3.18.29-.73.34-.86,1.09-1.09.61-.19,1.2-.41,1.77-.7,1.31-.66,2.66-1.72,3.28-3.1,2.72-6.11-.69-9.83-5.79-10.79l.47-6.79c1.99-.89,3.99-1.87,5.65-3.29,2.37-2.02,4.29-4.79,5.47-7.65,1.37-3.34,2.8-9.1-2.18-10.15-4.51-.95-6.84,4.67-7.86,8.09-.36,1.22-.84,2.64-1.03,3.91-.33,2.27-.26,4.04-.65,4.22-3.26,1.51-6.07,2.83-8.84,5.16-2.95,2.47-6.22,6.02-5.9,10.14.03.34.07.69.13,1.04ZM38.44,50.79c.26-3.76.49-7.12.75-10.81,6.36,1.78,4.83,9.41-.75,10.81ZM44.8,14.1c.93-1.21,2.43-2.76,3.91-1.88,1.68.99,1.4,3.3.81,4.78-.81,2.01-2.2,3.7-3.93,4.99-1.01.75-2.14,1.37-3.3,1.88-.29.13-.86.43-1.95.78.05-.89.31-1.88.49-2.53.29-1.04.78-2.34,1.2-3.34.65-1.57,1.38-2.74,2.36-4.12.12-.17.26-.37.42-.57ZM39.07,30.29s-.43,6.21-.43,6.21c0-.12-2.36.18-2.55.23-2.52.65-5.41,3.14-5.08,6,.13,1.11.91,2.6,1.75,3.35.49.44.59.31.32-.29-1.41-3.13,1.44-6.96,5.34-6.04-.27,3.87-.5,7.33-.77,11.19-5.38.82-10.87-2.86-10.89-8.66-.11-.36-.04-.69.06-1.03.85-6.84,6.92-8.64,12.24-10.97Z"/>
    <path class="cls-1" d="M23.43,43.83c-.53-.02-1.34.02-2.18.37-3.34,1.41-6.2,6.16-5.64,16.55.04.7.32,10.96-5.99,16.16-2.78,2.29-5.64,2.62-7.16,2.64H.5V.5h1.95c1.52.02,4.38.35,7.16,2.64,6.31,5.2,6.03,15.46,5.99,16.16-.49,9.18,1.86,13.49,5.64,16.55.71.57,1.37.96,1.8,1.18-.24.71-.55,1.91-.47,3.4.08,1.53.53,2.7.85,3.39Z"/>
  </g>
</svg>