<?xml version="1.0" encoding="UTF-8"?>
<svg id="Vrstva_2" data-name="Vrstva 2" xmlns="http://www.w3.org/2000/svg" viewBox="0 0 48.55 31.21">
  <defs>
    <style>
      .cls-1 {
        fill: #dadada;
        stroke: #26251d;
        stroke-linecap: round;
        stroke-linejoin: round;
      }

      .cls-2 {
        fill: #010101;
      }

      .cls-2, .cls-3 {
        stroke-width: 0px;
      }

      .cls-3 {
        fill: #1d1d1b;
      }
    </style>
  </defs>
  <g id="Vrstva_1-2" data-name="Vrstva 1">
    <path class="cls-1" d="M48.05.51v25.29h-2.69c-8.57.12-11.88-2.13-13.24-4.41-1.07-1.79-2.12-5.59-5.37-6.81-.45-.17-.84-.25-1.1-.29-.77-.06-1.54-.12-2.3-.18-.2-.01-.4-.02-.61-.02v-1.89c.1,0,.21,0,.31,0,.16,0,.27-.01.3-.01.17-.01.76-.04,2.27-.11.22-.01.58-.05,1-.17,3.17-.9,4.23-4.98,5.5-6.99,1.4-2.23,4.7-4.54,13.24-4.41h2.69Z"/>
    <path class="cls-2" d="M9.81,26.65c-2.22,1.66-3.99,2.93-9.59,4.55,9.5-5.39,12.83-10.95,12.7-18.79-.05-2.76-2.54-6.01-6.13-5.92-.78.02-3.46-.29-5.58,3.26.46-.33,1.02-.52,1.63-.52,1.57,0,2.84,1.27,2.84,2.84s-1.27,2.84-2.84,2.84-2.84-1.27-2.84-2.84c0-.24.04-.47.09-.69l-.09.05c.34-2.94,2-4.7,3.21-5.52,1.53-1.03,3.41-1.69,5.27-1.62,6.37.23,7.65,5.59,7.9,7.32.97,6.8-2.93,12.32-6.56,15.03ZM21.42,6.79c-1,0-1.82.81-1.82,1.82s.81,1.82,1.82,1.82,1.82-.81,1.82-1.82-.81-1.82-1.82-1.82ZM21.42,15.35c-1,0-1.82.81-1.82,1.82s.81,1.82,1.82,1.82,1.82-.81,1.82-1.82-.81-1.82-1.82-1.82Z"/>
    <g>
      <path class="cls-3" d="M35.42,17.75c-.45.05-.86.06-1.21,0-.36-.05-.67-.13-.94-.24-.27-.11-.51-.24-.71-.4-.2-.16-.37-.32-.5-.49-.32-.4-.53-.87-.64-1.41-.02-.09-.03-.2-.03-.32s.06-.2.17-.23c.09-.03.2-.04.33-.04s.26.01.38.04c.12.03.24.07.34.13.1.06.18.15.22.25,0,.04,0,.08.03.12.02.04.03.09.05.15.01.05.03.12.06.19.03.09.07.18.12.28.04.08.1.17.18.27.08.1.17.2.27.29.15.15.34.28.58.39.24.11.52.16.86.17h.01c.12,0,.22,0,.33,0,.1,0,.2-.02.3-.04.06-.02.12-.03.18-.05.06-.01.12-.03.19-.06.25-.09.45-.21.6-.35.15-.15.27-.3.35-.45.1-.17.16-.35.2-.53.04-.25.02-.46-.05-.62s-.17-.3-.31-.4-.28-.18-.45-.23-.32-.08-.47-.1c-.13-.02-.23-.1-.29-.24-.06-.14-.09-.27-.1-.39,0-.05.02-.09.05-.11.03-.02.07-.04.11-.06.04,0,.1-.01.16-.01.52-.02.93-.08,1.25-.19.32-.11.56-.24.73-.4.17-.16.29-.32.36-.49.07-.17.11-.32.13-.47.02-.14.01-.32-.01-.54-.03-.22-.11-.42-.26-.61-.15-.19-.38-.35-.69-.49s-.74-.19-1.28-.16c-.54.03-1.04.12-1.49.29-.45.16-.84.35-1.18.55-.34.2-.62.41-.85.61-.23.2-.4.36-.52.48-.11.11-.2.15-.29.12-.09-.03-.16-.09-.23-.19-.03-.04-.04-.09-.05-.14,0-.05-.02-.1-.03-.14,0-.04-.01-.09-.01-.15,0-.35.07-.65.22-.9s.34-.47.57-.66c.23-.19.49-.34.79-.46.29-.12.59-.22.89-.29.71-.17,1.52-.25,2.43-.24.46.03.86.09,1.21.19s.63.22.86.35c.23.14.42.29.57.47s.26.34.34.51c.19.41.24.86.17,1.36-.09.45-.27.82-.54,1.1-.27.28-.55.5-.85.66-.35.19-.73.32-1.15.41.34.07.6.18.77.34.18.16.31.31.39.47.1.19.15.39.16.6,0,.36-.07.68-.23.97-.16.29-.38.54-.65.75s-.57.38-.9.51-.66.21-.99.23ZM34.36,16c-.2-.02-.36-.07-.48-.15-.12-.08-.2-.16-.24-.23-.04-.05-.07-.11-.07-.17,0-.06,0-.11,0-.13.03-.26.07-.5.12-.73.05-.23.1-.44.15-.61.05-.2.11-.39.17-.55.12-.41.25-.77.38-1.09.13-.32.24-.58.34-.79.12-.25.23-.47.33-.65.04-.07.09-.13.15-.17.04-.04.1-.08.15-.09.06-.02.12,0,.18.03.06.04.14.09.23.17.09.08.18.17.26.28.08.11.14.22.17.35s.03.24-.03.36c-.03.06-.08.15-.16.27-.08.12-.18.26-.29.42-.11.16-.23.36-.35.58-.12.22-.24.48-.35.76-.18.48-.31.89-.39,1.22-.08.33-.14.62-.15.85,0,.05-.03.08-.06.09-.03,0-.06.01-.07.01Z"/>
      <path class="cls-3" d="M43.52,14.72c.09.03.13.08.13.16,0,.04,0,.08-.03.12-.05.12-.13.27-.23.46-.1.19-.22.38-.35.58s-.27.38-.41.55c-.15.17-.3.3-.46.39-.1.06-.2.1-.29.11-.1.01-.19.02-.27,0-.1,0-.19-.03-.27-.05-.18-.08-.3-.2-.37-.37-.07-.17-.1-.37-.09-.6-.2.31-.43.56-.67.73-.24.18-.48.26-.7.24-.16,0-.32-.05-.47-.13-.16-.08-.28-.21-.36-.39-.08-.18-.12-.42-.11-.73.01-.3.1-.68.27-1.13.17-.45.36-.82.57-1.1.21-.28.43-.49.64-.64.21-.15.42-.23.63-.26.21-.03.39,0,.55.05.13.05.23.13.3.23.07.1.11.2.14.32.04-.09.08-.18.12-.27.02-.04.04-.07.05-.11.02-.05.04-.1.08-.13.03-.04.06-.07.09-.09.04-.03.08-.03.12-.01.08.03.19.08.32.16.13.08.26.19.37.32.04.04.06.08.07.13,0,.04,0,.1,0,.17-.01.07-.05.16-.1.25-.04.06-.09.16-.16.29-.07.13-.15.29-.23.46-.08.17-.17.36-.25.55-.08.19-.14.37-.19.53s-.06.3-.05.42c0,.12.06.19.15.21.1.04.2,0,.31-.09.11-.09.22-.21.33-.35.11-.14.2-.28.29-.44.08-.16.15-.28.21-.38,0-.04.03-.07.07-.11.06-.06.14-.09.24-.08ZM41.24,14.43c.05-.19.08-.34.09-.45,0-.11,0-.2-.02-.27-.02-.07-.05-.11-.08-.13s-.06-.04-.07-.05c-.03,0-.07-.01-.13,0s-.14.05-.25.13c-.1.08-.22.21-.35.4s-.28.46-.45.83c-.17.37-.27.66-.31.85-.04.2-.04.34-.03.44.03.11.08.17.17.19.17.03.33-.05.49-.23.16-.18.31-.39.44-.62.15-.27.3-.58.44-.93,0,0,0-.02.01-.03l.04-.12Z"/>
      <path class="cls-3" d="M43.64,16.19s.01.02.01.03c0,0,0,.04-.03.09-.02.02-.03.04-.04.08,0,.04-.01.07-.01.1s.01.06.03.09c.02.03.06.05.13.06.08.02.14,0,.18-.04.04-.04.07-.1.08-.18s.02-.16,0-.27c0-.1-.02-.2-.03-.3-.02-.2-.04-.39-.06-.56-.02-.17-.04-.34-.06-.52v-.16c-.07.14-.14.27-.21.39-.07.12-.12.21-.17.28-.02.04-.04.07-.08.09-.03.02-.06.03-.09.03-.04,0-.07-.02-.11-.06-.04-.04-.07-.08-.07-.12,0-.04,0-.07,0-.11s.03-.08.05-.12c.05-.12.12-.27.19-.43.08-.16.15-.32.21-.48.07-.16.13-.3.19-.43s.1-.23.11-.3c.02-.2.04-.37.07-.52.03-.15.06-.24.11-.28.06-.05.14-.1.25-.14.1-.04.21-.07.33-.09.12-.02.24-.04.37-.04s.24,0,.35,0c.04.02.08.04.11.08.02.04.03.08.03.15s-.02.16-.07.28c-.04.1-.09.22-.13.38-.04.16-.08.33-.11.52-.03.19-.05.39-.05.61,0,.21,0,.42.03.61.04.2.07.44.11.71.04.27.03.53-.01.78-.04.25-.16.46-.33.65-.18.18-.47.28-.87.3-.24,0-.44-.02-.6-.09-.14-.05-.26-.15-.36-.28-.1-.13-.12-.33-.07-.59,0-.05.02-.1.04-.15.02-.04.04-.09.07-.13.03-.04.06-.07.11-.1,0,0,.02-.01.04-.01.04,0,.09,0,.13.01.04.02.09.04.13.06.04.02.07.06.09.1Z"/>
    </g>
  </g>
</svg>