<svg width="22" height="24" viewBox="0 0 22 24" fill="none" xmlns="http://www.w3.org/2000/svg">
<path d="M15.8889 24C14.1981 24 12.7571 23.4104 11.5659 22.2311C10.3746 21.0519 9.77859 19.6264 9.77777 17.9547C9.77696 16.2829 10.373 14.8574 11.5659 13.6782C12.7588 12.4989 14.1998 11.9093 15.8889 11.9093C17.578 11.9093 19.0194 12.4989 20.2131 13.6782C21.4068 14.8574 22.0024 16.2829 22 17.9547C21.9975 19.6264 21.4015 21.0523 20.2119 22.2323C19.0223 23.4124 17.5813 24.0016 15.8889 24ZM0 10.8212V5.10831C0 4.60453 0.147889 4.15113 0.443666 3.74811C0.739444 3.34509 1.12119 3.0529 1.58889 2.87154L8.92222 0.151133C9.2074 0.0503778 9.49259 0 9.77777 0C10.063 0 10.3481 0.0503778 10.6333 0.151133L17.9667 2.87154C18.4352 3.0529 18.8173 3.34509 19.1131 3.74811C19.4089 4.15113 19.5564 4.60453 19.5555 5.10831V8.79597C19.5555 9.13854 19.4028 9.41582 19.0972 9.62781C18.7917 9.8398 18.4657 9.89501 18.1194 9.79345C17.7528 9.69269 17.3861 9.61733 17.0194 9.56735C16.6528 9.51738 16.2759 9.49199 15.8889 9.49118C13.5259 9.49118 11.5093 10.3174 9.83889 11.9698C8.16852 13.6222 7.33333 15.6171 7.33333 17.9547C7.33333 18.5995 7.40992 19.2294 7.56311 19.8444C7.71629 20.4594 7.93507 21.0789 8.21944 21.7028C8.40278 22.0856 8.34696 22.4282 8.052 22.7305C7.75704 23.0327 7.41563 23.0932 7.02778 22.9118C6.17222 22.4685 5.38796 21.9244 4.675 21.2796C3.96204 20.6348 3.33055 19.9295 2.78055 19.1637C1.90463 17.9748 1.22222 16.6698 0.733333 15.2488C0.244444 13.8277 0 12.3518 0 10.8212ZM15.8889 17.9547C16.3981 17.9547 16.8312 17.7785 17.1881 17.4263C17.545 17.0741 17.723 16.6456 17.7222 16.1411C17.7214 15.6365 17.5434 15.2085 17.1881 14.857C16.8328 14.5056 16.3998 14.3291 15.8889 14.3275C15.378 14.3258 14.9453 14.5024 14.5909 14.857C14.2364 15.2117 14.058 15.6397 14.0556 16.1411C14.0531 16.6424 14.2316 17.0708 14.5909 17.4263C14.9502 17.7818 15.3829 17.9579 15.8889 17.9547ZM15.8889 21.5819C16.3981 21.5819 16.8768 21.4859 17.325 21.2941C17.7731 21.1023 18.1704 20.8254 18.5167 20.4635C18.6185 20.3426 18.6593 20.2067 18.6389 20.056C18.6185 19.9053 18.5268 19.7892 18.3639 19.7078C17.9768 19.5264 17.5747 19.3906 17.1576 19.3004C16.7404 19.2101 16.3175 19.1645 15.8889 19.1637C15.4603 19.1629 15.0378 19.2085 14.6214 19.3004C14.2051 19.3922 13.8026 19.5281 13.4139 19.7078C13.2509 19.7884 13.1593 19.9045 13.1389 20.056C13.1185 20.2076 13.1593 20.3434 13.2611 20.4635C13.6074 20.8262 14.0046 21.1035 14.4528 21.2953C14.9009 21.4872 15.3796 21.5827 15.8889 21.5819Z" fill="#90CA50"/>
</svg>
