<svg width="47" height="52" viewBox="0 0 47 52" fill="none" xmlns="http://www.w3.org/2000/svg">
<g filter="url(#filter0_di_3695_29)">
<path d="M14.1429 5C15.4071 5 16.4286 6.0334 16.4286 7.3125V9.625H25.5714V7.3125C25.5714 6.0334 26.5929 5 27.8571 5C29.1214 5 30.1429 6.0334 30.1429 7.3125V9.625H33.5714C35.4643 9.625 37 11.1787 37 13.0938V16.5625H5V13.0938C5 11.1787 6.53571 9.625 8.42857 9.625H11.8571V7.3125C11.8571 6.0334 12.8786 5 14.1429 5ZM5 18.875H37V38.5312C37 40.4463 35.4643 42 33.5714 42H8.42857C6.53571 42 5 40.4463 5 38.5312V18.875ZM9.57143 24.6562V26.9688C9.57143 27.6047 10.0857 28.125 10.7143 28.125H13C13.6286 28.125 14.1429 27.6047 14.1429 26.9688V24.6562C14.1429 24.0203 13.6286 23.5 13 23.5H10.7143C10.0857 23.5 9.57143 24.0203 9.57143 24.6562ZM18.7143 24.6562V26.9688C18.7143 27.6047 19.2286 28.125 19.8571 28.125H22.1429C22.7714 28.125 23.2857 27.6047 23.2857 26.9688V24.6562C23.2857 24.0203 22.7714 23.5 22.1429 23.5H19.8571C19.2286 23.5 18.7143 24.0203 18.7143 24.6562ZM29 23.5C28.3714 23.5 27.8571 24.0203 27.8571 24.6562V26.9688C27.8571 27.6047 28.3714 28.125 29 28.125H31.2857C31.9143 28.125 32.4286 27.6047 32.4286 26.9688V24.6562C32.4286 24.0203 31.9143 23.5 31.2857 23.5H29ZM9.57143 33.9062V36.2188C9.57143 36.8547 10.0857 37.375 10.7143 37.375H13C13.6286 37.375 14.1429 36.8547 14.1429 36.2188V33.9062C14.1429 33.2703 13.6286 32.75 13 32.75H10.7143C10.0857 32.75 9.57143 33.2703 9.57143 33.9062ZM19.8571 32.75C19.2286 32.75 18.7143 33.2703 18.7143 33.9062V36.2188C18.7143 36.8547 19.2286 37.375 19.8571 37.375H22.1429C22.7714 37.375 23.2857 36.8547 23.2857 36.2188V33.9062C23.2857 33.2703 22.7714 32.75 22.1429 32.75H19.8571ZM27.8571 33.9062V36.2188C27.8571 36.8547 28.3714 37.375 29 37.375H31.2857C31.9143 37.375 32.4286 36.8547 32.4286 36.2188V33.9062C32.4286 33.2703 31.9143 32.75 31.2857 32.75H29C28.3714 32.75 27.8571 33.2703 27.8571 33.9062Z" fill="#90CA50"/>
<path d="M38 17.875V38.5312C38 40.9876 36.0274 43 33.5713 43H8.42871C5.97262 43 4 40.9876 4 38.5312V17.875H38ZM10.7139 33.75C10.6486 33.7503 10.5713 33.8118 10.5713 33.9062V36.2188C10.5713 36.3132 10.6486 36.3747 10.7139 36.375H13C13.0653 36.375 13.1426 36.3134 13.1426 36.2188V33.9062C13.1426 33.8116 13.0653 33.75 13 33.75H10.7139ZM19.8574 33.75C19.7921 33.75 19.7139 33.8116 19.7139 33.9062V36.2188C19.7139 36.3134 19.7921 36.375 19.8574 36.375H22.1426C22.2079 36.375 22.2861 36.3134 22.2861 36.2188V33.9062C22.2861 33.8116 22.2079 33.75 22.1426 33.75H19.8574ZM29 33.75C28.9347 33.75 28.8574 33.8116 28.8574 33.9062V36.2188C28.8574 36.3134 28.9347 36.375 29 36.375H31.2861C31.3514 36.3747 31.4287 36.3132 31.4287 36.2188V33.9062C31.4287 33.8118 31.3514 33.7503 31.2861 33.75H29ZM10.7139 24.5C10.6486 24.5003 10.5713 24.5618 10.5713 24.6562V26.9688C10.5713 27.0632 10.6486 27.1247 10.7139 27.125H13C13.0653 27.125 13.1426 27.0634 13.1426 26.9688V24.6562C13.1426 24.5616 13.0653 24.5 13 24.5H10.7139ZM19.8574 24.5C19.7921 24.5 19.7139 24.5616 19.7139 24.6562V26.9688C19.7139 27.0634 19.7921 27.125 19.8574 27.125H22.1426C22.2079 27.125 22.2861 27.0634 22.2861 26.9688V24.6562C22.2861 24.5616 22.2079 24.5 22.1426 24.5H19.8574ZM29 24.5C28.9347 24.5 28.8574 24.5616 28.8574 24.6562V26.9688C28.8574 27.0634 28.9347 27.125 29 27.125H31.2861C31.3514 27.1247 31.4287 27.0632 31.4287 26.9688V24.6562C31.4287 24.5618 31.3514 24.5003 31.2861 24.5H29ZM27.8574 4C29.6848 4.00015 31.1426 5.49222 31.1426 7.3125V8.625H33.5713C36.0274 8.625 38 10.6374 38 13.0938V17.5625H4V13.0938C4 10.6374 5.97262 8.625 8.42871 8.625H10.8574V7.3125C10.8574 5.49222 12.3152 4.00015 14.1426 4C15.9701 4 17.4287 5.49213 17.4287 7.3125V8.625H24.5713V7.3125C24.5713 5.49213 26.0299 4 27.8574 4Z" stroke="#FEF35A" stroke-width="2"/>
</g>
<defs>
<filter id="filter0_di_3695_29" x="0.5" y="0.5" width="46" height="51" filterUnits="userSpaceOnUse" color-interpolation-filters="sRGB">
<feFlood flood-opacity="0" result="BackgroundImageFix"/>
<feColorMatrix in="SourceAlpha" type="matrix" values="0 0 0 0 0 0 0 0 0 0 0 0 0 0 0 0 0 0 127 0" result="hardAlpha"/>
<feOffset dx="2.5" dy="2.5"/>
<feGaussianBlur stdDeviation="2.5"/>
<feComposite in2="hardAlpha" operator="out"/>
<feColorMatrix type="matrix" values="0 0 0 0 0 0 0 0 0 0 0 0 0 0 0 0 0 0 0.25 0"/>
<feBlend mode="normal" in2="BackgroundImageFix" result="effect1_dropShadow_3695_29"/>
<feBlend mode="normal" in="SourceGraphic" in2="effect1_dropShadow_3695_29" result="shape"/>
<feColorMatrix in="SourceAlpha" type="matrix" values="0 0 0 0 0 0 0 0 0 0 0 0 0 0 0 0 0 0 127 0" result="hardAlpha"/>
<feOffset dx="5" dy="5"/>
<feGaussianBlur stdDeviation="5"/>
<feComposite in2="hardAlpha" operator="arithmetic" k2="-1" k3="1"/>
<feColorMatrix type="matrix" values="0 0 0 0 0 0 0 0 0 0 0 0 0 0 0 0 0 0 0.25 0"/>
<feBlend mode="normal" in2="shape" result="effect2_innerShadow_3695_29"/>
</filter>
</defs>
</svg>
