<svg width="22" height="22" fill="none" xmlns="http://www.w3.org/2000/svg"><path d="m20.954 10.393-2.87-1.666c2.765-2.357-.011-6.757-3.332-5.258l-.912.387-.115-1.006C13.62 1.72 13.033.912 12.258.441 10.54-.557 7.921.127 7.501 2.62L4.621.965a2.08 2.08 0 0 0-2.86.765L.711 3.542A1.05 1.05 0 0 0 1.1 4.977l8.162 4.714 1.571-2.724 1.813 1.048-1.572 2.724 8.162 4.714c.502.262 1.152.115 1.435-.388l1.048-1.812a2.09 2.09 0 0 0-.765-2.86ZM10.864 4.19c-.91.262-1.644-.712-1.183-1.519.272-.502.932-.67 1.435-.387.807.471.65 1.686-.251 1.906Zm5.438 3.143c-.9.262-1.634-.712-1.173-1.519.283-.503.932-.67 1.425-.388.806.472.65 1.687-.252 1.907Zm3.468 9.303c.43 0 .838-.147 1.184-.399v3.667A2.088 2.088 0 0 1 18.858 22H2.095A2.095 2.095 0 0 1 0 19.905v-9.428h8.539l.89.524v8.904h2.096v-7.7l7.197 4.149c.315.188.66.283 1.048.283Z" fill="#000"/></svg>