<svg width="36" height="38" fill="none" xmlns="http://www.w3.org/2000/svg"><path d="M18 10.364c2.22 0 4-1.555 4-3.455 0-.656-.2-1.26-.58-1.779L18 0l-3.42 5.13A2.964 2.964 0 0 0 14 6.91c0 .915.421 1.794 1.172 2.442.75.648 1.767 1.012 2.828 1.012Zm9.2 17.272-2.14-1.865-2.16 1.865c-2.6 2.229-7.16 2.246-9.78 0L11 25.771l-2.2 1.865c-1.3 1.106-3.04 1.728-4.88 1.728-1.46 0-2.8-.398-3.92-1.054v7.963c0 .458.21.897.586 1.221A2.17 2.17 0 0 0 2 38h32c.53 0 1.04-.182 1.414-.506.375-.324.586-.763.586-1.221V28.31a7.734 7.734 0 0 1-3.92 1.054c-1.84 0-3.58-.622-4.88-1.728Zm2.8-12.09H20V12.09h-4v3.455H6c-1.591 0-3.117.545-4.243 1.517C.632 18.035 0 19.353 0 20.727v2.66c0 1.866 1.76 3.386 3.92 3.386 1.08 0 2.08-.346 2.76-.985L11 22.11l4.22 3.68c1.48 1.277 4.06 1.277 5.54 0l4.24-3.68 4.3 3.68c.7.638 1.7.984 2.76.984 2.16 0 3.94-1.52 3.94-3.386v-2.66c0-1.374-.632-2.692-1.757-3.664-1.126-.972-2.652-1.517-4.243-1.517Z" fill="#000"/></svg>