<svg width="47" height="40" viewBox="0 0 47 40" fill="none" xmlns="http://www.w3.org/2000/svg">
<path opacity="0.3" d="M9.38238 8.85205C9.60404 6.40423 10.7823 4.14411 12.658 2.56889C14.5337 0.99368 16.9531 0.232405 19.384 0.452541C21.815 0.672677 24.0583 1.85619 25.6205 3.74273C27.1827 5.62926 27.9358 8.06428 27.7141 10.5121C27.4925 12.9599 26.3142 15.22 24.4385 16.7953C22.5629 18.3705 20.1434 19.1318 17.7125 18.9116C15.2815 18.6915 13.0382 17.508 11.476 15.6214C9.91381 13.7349 9.16071 11.2999 9.38238 8.85205ZM0.194529 33.7766C0.837694 26.6742 7.07311 21.4376 14.1265 22.0763L20.6716 22.669C27.725 23.3078 32.9183 29.5793 32.2751 36.6817C32.168 37.8642 31.1288 38.737 29.9544 38.6306L2.12737 36.1107C0.952993 36.0044 0.087444 34.9591 0.194529 33.7766ZM43.6316 39.8692L33.764 38.9756C34.2121 38.3328 34.5124 37.5676 34.5888 36.724L34.641 36.1472C35.0374 31.7703 33.4526 27.6648 30.6339 24.7489C30.8064 24.7572 30.9718 24.7649 31.1437 24.7805L35.5404 25.1786C41.9136 25.7558 46.6123 31.43 46.0305 37.8546C45.9195 39.0804 44.8418 39.9788 43.6316 39.8692ZM32.607 20.2604C30.3872 20.0594 28.4644 18.9693 27.1433 17.3739C28.7277 15.5836 29.7732 13.2866 30.0056 10.7196C30.1806 8.78717 29.8732 6.9201 29.1803 5.24348C30.6011 4.38346 32.2938 3.9479 34.0697 4.10871C38.5022 4.51011 41.7627 8.44748 41.3585 12.9108C40.9543 17.3742 37.0396 20.6618 32.607 20.2604Z" fill="black"/>
</svg>
