<svg width="53" height="30" fill="none" xmlns="http://www.w3.org/2000/svg"><path d="M48.583 0H19.875c-2.43 0-4.417 2.025-4.417 4.5v20.25c0 2.497 1.988 4.5 4.417 4.5h28.708c2.452 0 4.417-2.003 4.417-4.5V4.5C53 2.025 51.035 0 48.583 0Zm0 24.75H19.875V8.258l14.354 7.492 14.354-7.492V24.75ZM34.23 11.947 19.875 4.5h28.708L34.23 11.947ZM11.042 24.75c0 .383.066.742.11 1.125H2.208C.99 25.875 0 24.863 0 23.625s.99-2.25 2.208-2.25h8.834v3.375ZM6.625 3.375h4.527c-.044.382-.11.742-.11 1.125v3.375H6.625c-1.215 0-2.208-1.013-2.208-2.25s.993-2.25 2.208-2.25Zm-4.417 11.25c0-1.238.994-2.25 2.209-2.25h6.625v4.5H4.417c-1.215 0-2.209-1.012-2.209-2.25Z" fill="#000"/></svg>