<svg width="29" height="29" fill="none" xmlns="http://www.w3.org/2000/svg"><path d="M14.5 29C22.475 29 29 22.475 29 14.5S22.475 0 14.5 0 0 6.525 0 14.5 6.525 29 14.5 29Zm.435-21.33c.29-.26.638-.42 1.015-.42.392 0 .725.16 1.03.42.275.305.42.653.42 1.03 0 .392-.145.725-.42 1.03-.305.275-.639.42-1.03.42-.377 0-.725-.145-1.015-.42-.276-.305-.435-.639-.435-1.03 0-.377.16-.725.435-1.03Zm-3.625 6.787s3.146-2.495 4.292-2.596c1.073-.087.855 1.146.754 1.784l-.015.087c-.203.768-.449 1.696-.696 2.58-.55 2.016-1.087 3.988-.957 4.35.146.494 1.044-.13 1.697-.565.087-.058.16-.116.232-.16 0 0 .116-.116.232.044.029.043.058.087.087.116.13.203.203.275.029.391l-.058.03c-.319.217-1.682 1.174-2.233 1.522-.595.392-2.871 1.697-2.523-.841.305-1.784.71-3.32 1.03-4.524.594-2.175.855-3.161-.479-2.306a19.36 19.36 0 0 0-1.044.653c-.16.116-.174.116-.275-.072l-.044-.087-.072-.117c-.102-.145-.102-.159.043-.29Z" fill="#000"/></svg>