<svg width="21" height="21" viewBox="0 0 21 21" fill="none" xmlns="http://www.w3.org/2000/svg">
<path d="M6.30566 16.7998C6.88225 16.7984 7.37766 17.0041 7.79102 17.417C8.2044 17.83 8.41031 18.325 8.4082 18.9004C8.406 19.4756 8.2001 19.9702 7.79102 20.3838C7.38184 20.7975 6.8865 21.0028 6.30566 21C5.72784 21 5.23345 20.7945 4.82227 20.3838C4.41108 19.973 4.2049 19.4784 4.2041 18.9004C4.2034 18.3222 4.40958 17.8272 4.82227 17.417C5.23483 17.0071 5.72929 16.8012 6.30566 16.7998ZM16.8154 16.7998C17.392 16.7984 17.8874 17.004 18.3008 17.417C18.7142 17.83 18.9201 18.325 18.918 18.9004C18.9158 19.4756 18.7098 19.9702 18.3008 20.3838C17.8916 20.7975 17.3963 21.0028 16.8154 21C16.2376 21 15.7432 20.7945 15.332 20.3838C14.9209 19.973 14.7147 19.4784 14.7139 18.9004C14.7132 18.3222 14.9194 17.8272 15.332 17.417C15.7446 17.0071 16.239 16.8012 16.8154 16.7998ZM2.75879 0C2.95142 0 3.13543 0.0522801 3.31055 0.157227C3.4857 0.262219 3.6175 0.411037 3.70508 0.603516L4.41406 2.09961H19.916C20.3188 2.09964 20.6258 2.27961 20.8359 2.63867C21.046 2.9977 21.054 3.36081 20.8613 3.72754L17.1309 10.4473C16.9382 10.7973 16.6801 11.0692 16.3564 11.2617C16.0329 11.4541 15.6779 11.5497 15.292 11.5498H7.46191L6.30566 13.6504H17.8662C18.164 13.6504 18.4144 13.7505 18.6162 13.9521C18.818 14.1537 18.9187 14.4034 18.918 14.7002C18.9172 14.9967 18.816 15.2461 18.6152 15.4482C18.4141 15.6505 18.164 15.7514 17.8662 15.75H6.30566C5.51764 15.75 4.92237 15.4045 4.51953 14.7139C4.11666 14.023 4.09896 13.3355 4.4668 12.6523L5.88574 10.0801L2.10156 2.09961H1.05078C0.753167 2.09957 0.50375 1.99931 0.302734 1.79785C0.101649 1.59625 0.000700647 1.3466 0 1.0498C-0.000656085 0.75316 0.100387 0.504265 0.302734 0.302734C0.505177 0.101179 0.754494 4.44995e-05 1.05078 0H2.75879ZM14.752 3.56836C14.5135 3.42924 14.2075 3.50962 14.0684 3.74805L10.5684 9.74805C10.4292 9.98653 10.5096 10.2925 10.748 10.4316C10.9865 10.5708 11.2925 10.4904 11.4316 10.252L14.9316 4.25195C15.0708 4.01347 14.9904 3.70753 14.752 3.56836ZM17.752 3.56836C17.5135 3.42924 17.2075 3.50962 17.0684 3.74805L13.5684 9.74805C13.4292 9.98653 13.5096 10.2925 13.748 10.4316C13.9865 10.5708 14.2925 10.4904 14.4316 10.252L17.9316 4.25195C18.0708 4.01347 17.9904 3.70753 17.752 3.56836Z" fill="#90CA50"/>
</svg>
