<svg width="23" height="23" viewBox="0 0 23 23" fill="none" xmlns="http://www.w3.org/2000/svg">
<path fill-rule="evenodd" clip-rule="evenodd" d="M1.6836 1.6836C0 3.3695 0 6.0789 0 11.5C0 16.9211 0 19.6316 1.6836 21.3152C3.3695 23 6.0789 23 11.5 23C16.9211 23 19.6316 23 21.3152 21.3152C23 19.6328 23 16.9211 23 11.5C23 6.0789 23 3.36835 21.3152 1.6836C19.6328 0 16.9211 0 11.5 0C6.0789 0 3.36835 0 1.6836 1.6836ZM11.5 12.65C11.805 12.65 12.0975 12.5288 12.3132 12.3132C12.5288 12.0975 12.65 11.805 12.65 11.5C12.65 11.195 12.5288 10.9025 12.3132 10.6868C12.0975 10.4712 11.805 10.35 11.5 10.35C11.195 10.35 10.9025 10.4712 10.6868 10.6868C10.4712 10.9025 10.35 11.195 10.35 11.5C10.35 11.805 10.4712 12.0975 10.6868 12.3132C10.9025 12.5288 11.195 12.65 11.5 12.65ZM8.05 11.5C8.05 11.805 7.92884 12.0975 7.71317 12.3132C7.49751 12.5288 7.205 12.65 6.9 12.65C6.595 12.65 6.30249 12.5288 6.08683 12.3132C5.87116 12.0975 5.75 11.805 5.75 11.5C5.75 11.195 5.87116 10.9025 6.08683 10.6868C6.30249 10.4712 6.595 10.35 6.9 10.35C7.205 10.35 7.49751 10.4712 7.71317 10.6868C7.92884 10.9025 8.05 11.195 8.05 11.5ZM16.1 12.65C16.405 12.65 16.6975 12.5288 16.9132 12.3132C17.1288 12.0975 17.25 11.805 17.25 11.5C17.25 11.195 17.1288 10.9025 16.9132 10.6868C16.6975 10.4712 16.405 10.35 16.1 10.35C15.795 10.35 15.5025 10.4712 15.2868 10.6868C15.0712 10.9025 14.95 11.195 14.95 11.5C14.95 11.805 15.0712 12.0975 15.2868 12.3132C15.5025 12.5288 15.795 12.65 16.1 12.65Z" fill="#90CA50"/>
</svg>
