<svg width="22" height="21" viewBox="0 0 22 21" fill="none" xmlns="http://www.w3.org/2000/svg">
<path d="M5.0032 21C4.44438 21 3.97707 20.79 3.60126 20.37C3.22545 19.95 3.07282 19.46 3.14337 18.9H7.41312L8.46091 14.7H10.5565L12.1282 8.4H4.45311L4.74125 6.0375C4.81111 5.5125 5.04686 5.075 5.44851 4.725C5.85017 4.375 6.31294 4.2 6.83684 4.2H8.90622C9.04593 2.8875 9.49578 1.85955 10.2558 1.11615C11.0158 0.37275 12.0503 0.0007 13.3593 0C14.477 0 15.4071 0.4158 16.1496 1.2474C16.8921 2.079 17.2543 3.0632 17.2362 4.2H19.908C20.5367 4.2 21.0606 4.43625 21.4797 4.90875C21.8988 5.38125 22.0647 5.9325 21.9774 6.5625L20.4057 19.1625C20.3359 19.6875 20.1043 20.125 19.711 20.475C19.3178 20.825 18.8595 21 18.3363 21H5.0032ZM0 16.8L0.523896 14.7H6.28675L5.76285 16.8H0ZM2.09558 12.6L2.61948 10.5H9.43012L8.90622 12.6H2.09558ZM11.0018 4.2H15.1668C15.1842 3.6225 14.988 3.1283 14.5779 2.7174C14.1679 2.3065 13.6744 2.1007 13.0974 2.1C12.4862 2.1 12.0014 2.2883 11.6431 2.6649C11.2847 3.0415 11.071 3.5532 11.0018 4.2Z" fill="#90CA50"/>
</svg>
