<svg width="17" height="17" viewBox="0 0 17 17" fill="none" xmlns="http://www.w3.org/2000/svg">
<path d="M8.5 12.2778C7.98056 12.2778 7.53604 12.093 7.16644 11.7234C6.79685 11.3538 6.61174 10.909 6.61111 10.3889C6.61048 9.86881 6.79559 9.4243 7.16644 9.05533C7.5373 8.68637 7.98181 8.50126 8.5 8.5C9.01818 8.49874 9.46302 8.68385 9.8345 9.05533C10.206 9.42681 10.3908 9.87133 10.3889 10.3889C10.387 10.9064 10.2022 11.3513 9.8345 11.7234C9.4668 12.0955 9.02196 12.2803 8.5 12.2778ZM4.13194 3.77778H12.8681L14.0722 1.36944C14.2296 1.05463 14.2177 0.747685 14.0363 0.448611C13.855 0.149537 13.5836 0 13.2222 0H3.77778C3.41574 0 3.14437 0.149537 2.96367 0.448611C2.78296 0.747685 2.771 1.05463 2.92778 1.36944L4.13194 3.77778ZM5.1 17H11.9C13.3167 17 14.5208 16.5083 15.5125 15.5248C16.5042 14.5413 17 13.333 17 11.9C17 11.3019 16.8977 10.7194 16.6931 10.1528C16.4884 9.58611 16.1972 9.07454 15.8194 8.61806L13.3639 5.66667H3.63611L1.18056 8.61806C0.802778 9.07454 0.511574 9.58611 0.306944 10.1528C0.102315 10.7194 0 11.3019 0 11.9C0 13.3324 0.492056 14.5407 1.47617 15.5248C2.46028 16.5089 3.66822 17.0006 5.1 17Z" fill="black"/>
</svg>
