<svg width="23" height="24" viewBox="0 0 23 24" fill="none" xmlns="http://www.w3.org/2000/svg">
<path d="M1.21053 24C0.867544 24 0.580246 23.8852 0.348632 23.6557C0.117018 23.4262 0.000807017 23.1425 0 22.8046V6.12808C0 5.84915 0.070614 5.59531 0.211842 5.36658C0.35307 5.13786 0.544737 4.97328 0.786842 4.87286L12.8921 0.0910816C13.2956 -0.0683112 13.6689 -0.0185009 14.0118 0.240512C14.3548 0.499526 14.5263 0.848197 14.5263 1.28653V4.87286H15.7368C16.0798 4.87286 16.3675 4.98763 16.5999 5.21715C16.8324 5.44668 16.9482 5.7304 16.9474 6.06831V9.65465C14.5868 9.65465 12.5846 10.4668 10.9407 12.091C9.29684 13.7152 8.47449 15.6924 8.47368 18.0228C8.47368 19.1584 8.69561 20.2443 9.13947 21.2804C9.58333 22.3164 10.2189 23.223 11.046 24H1.21053ZM7.26316 4.87286H12.1053V3.01992L7.26316 4.87286ZM16.9474 24C15.2728 24 13.8456 23.417 12.6657 22.2511C11.4859 21.0851 10.8955 19.6757 10.8947 18.0228C10.8939 16.3699 11.4843 14.9604 12.6657 13.7945C13.8472 12.6285 15.2744 12.0455 16.9474 12.0455C18.6203 12.0455 20.0479 12.6285 21.2302 13.7945C22.4125 14.9604 23.0024 16.3699 23 18.0228C22.9976 19.6757 22.4072 21.0855 21.229 22.2523C20.0507 23.419 18.6235 24.0016 16.9474 24ZM15.4342 21.0114L20.2763 18.0228L15.4342 15.0342V21.0114Z" fill="black"/>
</svg>
