<svg width="33" height="38" viewBox="0 0 33 38" fill="none" xmlns="http://www.w3.org/2000/svg">
<path opacity="0.3" d="M17.9997 18.0006C20.4144 18.2226 22.8169 17.4912 24.6789 15.9675C26.5408 14.4437 27.7096 12.2523 27.9281 9.87541C28.1467 7.49849 27.397 5.13073 25.8441 3.29301C24.2912 1.4553 22.0623 0.29816 19.6476 0.0761609C17.233 -0.145838 14.8304 0.585485 12.9685 2.10925C11.1065 3.63301 9.93775 5.82439 9.71922 8.20132C9.50069 10.5782 10.2503 12.946 11.8032 14.7837C13.3561 16.6214 15.5851 17.7786 17.9997 18.0006ZM14.4401 21.0625C7.43398 20.4184 1.24423 25.4839 0.610157 32.3806C0.504586 33.5289 1.36498 34.5471 2.53149 34.6544L30.1721 37.1956C31.3386 37.3028 32.3702 36.4586 32.4758 35.3103C33.1098 28.4136 27.9475 22.3044 20.9413 21.6602L14.4401 21.0625Z" fill="black"/>
</svg>
