<svg width="20" height="20" viewBox="0 0 20 20" fill="none" xmlns="http://www.w3.org/2000/svg">
<path d="M10 16.6667C10.3889 16.6667 10.7178 16.5322 10.9867 16.2633C11.2556 15.9944 11.3896 15.6659 11.3889 15.2778C11.3881 14.8896 11.2537 14.5607 10.9856 14.2911C10.7174 14.0215 10.3889 13.8874 10 13.8889C9.61111 13.8904 9.28222 14.0248 9.01333 14.2922C8.74444 14.5596 8.61037 14.8881 8.61111 15.2778C8.61185 15.6674 8.7463 15.9963 9.01444 16.2644C9.28259 16.5326 9.61111 16.6667 10 16.6667ZM9 12.3889H11.0556C11.0556 11.7222 11.1296 11.2315 11.2778 10.9167C11.4259 10.6019 11.7407 10.2037 12.2222 9.72222C12.8704 9.07407 13.3285 8.53222 13.5967 8.09667C13.8648 7.66111 13.9993 7.16593 14 6.61111C14 5.62963 13.6667 4.83815 13 4.23667C12.3333 3.63519 11.4352 3.33407 10.3056 3.33333C9.28704 3.33333 8.42148 3.58333 7.70889 4.08333C6.9963 4.58333 6.50074 5.27778 6.22222 6.16667L8.05556 6.88889C8.18518 6.38889 8.44444 5.9863 8.83333 5.68111C9.22222 5.37593 9.67593 5.22296 10.1944 5.22222C10.6944 5.22222 11.1111 5.35667 11.4444 5.62556C11.7778 5.89444 11.9444 6.25074 11.9444 6.69444C11.9444 7.00926 11.8426 7.34259 11.6389 7.69444C11.4352 8.0463 11.0926 8.43518 10.6111 8.86111C10 9.39815 9.57852 9.91222 9.34667 10.4033C9.11481 10.8944 8.99926 11.5563 9 12.3889ZM2.22222 20C1.61111 20 1.08815 19.7826 0.653333 19.3478C0.218519 18.913 0.000740741 18.3896 0 17.7778V2.22222C0 1.61111 0.217778 1.08815 0.653333 0.653333C1.08889 0.218519 1.61185 0.000740741 2.22222 0H17.7778C18.3889 0 18.9122 0.217778 19.3478 0.653333C19.7833 1.08889 20.0007 1.61185 20 2.22222V17.7778C20 18.3889 19.7826 18.9122 19.3478 19.3478C18.913 19.7833 18.3896 20.0007 17.7778 20H2.22222Z" fill="#90CA50"/>
</svg>
