<svg width="13" height="9" viewBox="0 0 13 9" fill="none" xmlns="http://www.w3.org/2000/svg">
<path d="M1.95 2.25C1.95 1.65326 2.22393 1.08097 2.71152 0.65901C3.19912 0.237053 3.86044 0 4.55 0C5.23956 0 5.90088 0.237053 6.38848 0.65901C6.87607 1.08097 7.15 1.65326 7.15 2.25C7.15 2.84674 6.87607 3.41903 6.38848 3.84099C5.90088 4.26295 5.23956 4.5 4.55 4.5C3.86044 4.5 3.19912 4.26295 2.71152 3.84099C2.22393 3.41903 1.95 2.84674 1.95 2.25ZM0 8.47793C0 6.74648 1.62094 5.34375 3.62172 5.34375H5.47828C7.47906 5.34375 9.1 6.74648 9.1 8.47793C9.1 8.76621 8.82984 9 8.49672 9H0.603281C0.270156 9 0 8.76621 0 8.47793ZM10.2375 5.48438V4.35938H8.9375C8.66734 4.35938 8.45 4.17129 8.45 3.9375C8.45 3.70371 8.66734 3.51562 8.9375 3.51562H10.2375V2.39062C10.2375 2.15684 10.4548 1.96875 10.725 1.96875C10.9952 1.96875 11.2125 2.15684 11.2125 2.39062V3.51562H12.5125C12.7827 3.51562 13 3.70371 13 3.9375C13 4.17129 12.7827 4.35938 12.5125 4.35938H11.2125V5.48438C11.2125 5.71816 10.9952 5.90625 10.725 5.90625C10.4548 5.90625 10.2375 5.71816 10.2375 5.48438Z" fill="#00913F"/>
</svg>
