<svg width="14" height="14" viewBox="0 0 14 14" fill="none" xmlns="http://www.w3.org/2000/svg">
<path d="M2.07888 11.9C1.8797 11.9 1.71285 11.8328 1.57834 11.6984C1.44384 11.564 1.37635 11.3979 1.37588 11.2C1.37541 11.0021 1.4429 10.836 1.57834 10.7016C1.71379 10.5672 1.88064 10.5 2.07888 10.5H2.78189V5.6C2.78189 4.63167 3.0748 3.77137 3.66064 3.0191C4.24648 2.26683 5.00806 1.7738 5.9454 1.54V1.05C5.9454 0.758335 6.04804 0.510535 6.25331 0.306602C6.45859 0.102668 6.70746 0.000468257 6.9999 1.59091e-06C7.29235 -0.000465076 7.54145 0.101735 7.7472 0.306602C7.95294 0.511468 8.05535 0.759268 8.05441 1.05V1.54C8.99175 1.77333 9.75333 2.26637 10.3392 3.0191C10.925 3.77183 11.2179 4.63213 11.2179 5.6V10.5H11.9209C12.1201 10.5 12.2872 10.5672 12.4222 10.7016C12.5571 10.836 12.6244 11.0021 12.6239 11.2C12.6235 11.3979 12.556 11.5642 12.4215 11.6991C12.287 11.834 12.1201 11.9009 11.9209 11.9H2.07888ZM6.9999 14C6.61325 14 6.28237 13.863 6.00726 13.5891C5.73216 13.3152 5.59437 12.9855 5.5939 12.6H8.40591C8.40591 12.985 8.26836 13.3147 7.99325 13.5891C7.71814 13.8635 7.38702 14.0005 6.9999 14ZM0.672877 5.6C0.473692 5.6 0.306846 5.52417 0.172338 5.3725C0.0378305 5.22083 -0.0179412 5.04583 0.00502354 4.8475C0.0987573 3.9725 0.344808 3.15863 0.743177 2.4059C1.14155 1.65317 1.65122 0.997035 2.27221 0.437502C2.42453 0.309168 2.59746 0.250835 2.79102 0.262502C2.98459 0.274168 3.13971 0.361668 3.25641 0.525001C3.37311 0.688335 3.41998 0.863335 3.39701 1.05C3.37405 1.23667 3.28617 1.4 3.13339 1.54C2.67644 1.97167 2.3015 2.47333 2.00858 3.045C1.71566 3.61667 1.52234 4.235 1.4286 4.9C1.40517 5.09833 1.32315 5.2647 1.18255 5.3991C1.04195 5.5335 0.872061 5.60047 0.672877 5.6ZM13.3269 5.6C13.1277 5.6 12.9579 5.5328 12.8173 5.3984C12.6767 5.264 12.5946 5.09787 12.5712 4.9C12.4775 4.235 12.2841 3.61667 11.9912 3.045C11.6983 2.47333 11.3234 1.97167 10.8664 1.54C10.7141 1.4 10.6262 1.23667 10.6028 1.05C10.5794 0.863335 10.6262 0.688335 10.7434 0.525001C10.8606 0.361668 11.0159 0.274168 11.2095 0.262502C11.403 0.250835 11.5758 0.309168 11.7276 0.437502C12.3486 0.997501 12.8583 1.65363 13.2566 2.4059C13.655 3.15817 13.9011 3.97203 13.9948 4.8475C14.0182 5.04583 13.9627 5.22083 13.8282 5.3725C13.6937 5.52417 13.5266 5.6 13.3269 5.6Z" fill="black"/>
</svg>
