<svg width="23" height="23" viewBox="0 0 23 23" fill="none" xmlns="http://www.w3.org/2000/svg">
<path d="M11.5 23C16.9211 23 19.633 23 21.3154 21.3164C23.0001 19.6316 23 16.921 23 11.5C23 6.0789 23.0002 3.36702 21.3154 1.68457C19.6318 -0.000179605 16.9211 0 11.5 0C6.07899 0 3.3695 -9.27037e-05 1.68359 1.68457C-6.17506e-06 3.36817 0 6.0789 0 11.5C0 16.9211 -6.19974e-06 19.6305 1.68359 21.3164C3.36834 23 6.0789 23 11.5 23Z" fill="black" fill-opacity="0.05"/>
<path d="M5.8125 17.4H17.1875C17.4177 17.4 17.6108 17.4768 17.7668 17.6304C17.9228 17.784 18.0005 17.9739 18 18.2C17.9995 18.4261 17.9215 18.6163 17.766 18.7704C17.6105 18.9245 17.4177 19.0011 17.1875 19H5.8125C5.58229 19 5.38946 18.9232 5.234 18.7696C5.07854 18.616 5.00054 18.4261 5 18.2C4.99946 17.9739 5.07746 17.784 5.234 17.6304C5.39054 17.4768 5.58338 17.4 5.8125 17.4ZM11.5 15.3C11.3781 15.3 11.2598 15.2733 11.1449 15.22C11.0301 15.1667 10.9318 15.0867 10.85 14.98L6.82813 9.9C6.625 9.63333 6.59792 9.35013 6.74688 9.0504C6.89584 8.75066 7.13959 8.60053 7.47813 8.6H9.0625V3.8C9.0625 3.57333 9.1405 3.38347 9.2965 3.2304C9.4525 3.07733 9.64533 3.00053 9.875 3H13.125C13.3552 3 13.5483 3.0768 13.7043 3.2304C13.8603 3.384 13.938 3.57387 13.9375 3.8V8.6H15.5219C15.8604 8.6 16.1042 8.75013 16.2531 9.0504C16.4021 9.35066 16.375 9.63386 16.1719 9.9L12.15 14.98C12.0688 15.0867 11.9704 15.1667 11.8551 15.22C11.7397 15.2733 11.6213 15.3 11.5 15.3Z" fill="black" fill-opacity="0.07"/>
</svg>
