<svg width="23" height="17" viewBox="0 0 23 17" fill="none" xmlns="http://www.w3.org/2000/svg">
<path d="M20.9095 0C21.4641 0 21.9959 0.220308 22.3881 0.612459C22.7802 1.00461 23.0006 1.53648 23.0006 2.09106V14.6375C23.0006 15.192 22.7802 15.7239 22.3881 16.1161C21.9959 16.5082 21.4641 16.7285 20.9095 16.7285H4.18097C3.62639 16.7285 3.09452 16.5082 2.70236 16.1161C2.31021 15.7239 2.08991 15.192 2.08991 14.6375V13.5919H4.18097V14.6375H20.9095V3.57886L13.6587 10.8296C13.3646 11.1236 12.9658 11.2888 12.5499 11.2888C12.1341 11.2888 11.7352 11.1236 11.4411 10.8296L4.18097 3.56945V4.18213H2.08991V2.09106C2.08991 1.53648 2.31021 1.00461 2.70236 0.612459C3.09452 0.220308 3.62639 0 4.18097 0H20.9095ZM6.27204 9.40979C6.53852 9.41009 6.79484 9.51213 6.98861 9.69506C7.18239 9.878 7.29899 10.128 7.31461 10.394C7.33023 10.6601 7.24368 10.922 7.07264 11.1264C6.9016 11.3307 6.65898 11.4621 6.39436 11.4935L6.27204 11.5009H1.04437C0.777889 11.5006 0.521574 11.3985 0.327799 11.2156C0.134024 11.0326 0.0174156 10.7826 0.00179835 10.5166C-0.0138189 10.2506 0.0727342 9.98862 0.243773 9.78427C0.414812 9.57991 0.657427 9.44858 0.922047 9.41711L1.04437 9.40979H6.27204ZM5.2265 6.27319C5.5038 6.27319 5.76973 6.38335 5.96581 6.57942C6.16188 6.7755 6.27204 7.04143 6.27204 7.31873C6.27204 7.59602 6.16188 7.86195 5.96581 8.05803C5.76973 8.2541 5.5038 8.36426 5.2265 8.36426H2.08991C1.81261 8.36426 1.54668 8.2541 1.3506 8.05803C1.15453 7.86195 1.04437 7.59602 1.04437 7.31873C1.04437 7.04143 1.15453 6.7755 1.3506 6.57942C1.54668 6.38335 1.81261 6.27319 2.08991 6.27319H5.2265Z" fill="black"/>
</svg>
