<svg width="37" height="38" viewBox="0 0 37 38" fill="none" xmlns="http://www.w3.org/2000/svg">
<path d="M21.6735 38C20.9222 38 20.2839 37.7358 19.7586 37.2073C19.2333 36.6789 18.97 36.0362 18.9688 35.2792V22.5823C18.9688 21.8266 19.2321 21.1845 19.7586 20.656C20.2851 20.1276 20.9234 19.8628 21.6735 19.8616H34.2953C35.0466 19.8616 35.6855 20.1264 36.212 20.656C36.7385 21.1857 37.0012 21.8278 37 22.5823V35.2792C37 36.035 36.7373 36.6777 36.212 37.2073C35.6867 37.737 35.0478 38.0012 34.2953 38H21.6735ZM13.6947 36.1862C13.2439 36.1862 12.8761 36.0574 12.5912 35.7998C12.3063 35.5422 12.1332 35.2176 12.0719 34.8258L11.4859 30.4726C11.0952 30.3214 10.7274 30.14 10.3824 29.9284C10.0374 29.7168 9.69898 29.4901 9.3672 29.2482L6.57237 30.4272C5.82107 30.7597 5.06977 30.79 4.31847 30.5179C3.56717 30.2458 2.98116 29.7621 2.56043 29.0668L0.441764 25.3484C0.0210361 24.6531 -0.0991715 23.9125 0.0811404 23.1265C0.261452 22.3405 0.667154 21.6905 1.29825 21.1766L3.68738 19.3628C3.65733 19.1512 3.6423 18.9474 3.6423 18.7515V17.5253C3.6423 17.3294 3.65733 17.1257 3.68738 16.9141L1.29825 15.1002C0.667154 14.5863 0.261452 13.9364 0.0811404 13.1504C-0.0991715 12.3644 0.0210361 11.6237 0.441764 10.9284L2.56043 7.21002C2.98116 6.51472 3.56717 6.03103 4.31847 5.75895C5.06977 5.48687 5.82107 5.5171 6.57237 5.84964L9.3672 7.02864C9.69777 6.78679 10.0434 6.56006 10.404 6.34845C10.7646 6.13683 11.1252 5.95545 11.4859 5.8043L11.8916 2.81146C12.0118 2.02546 12.3652 1.36038 12.9518 0.816229C13.5384 0.272076 14.2368 0 15.047 0H19.2844C20.0958 0 20.7948 0.272076 21.3814 0.816229C21.968 1.36038 22.3208 2.02546 22.4398 2.81146L22.8455 5.8043C23.2362 5.95545 23.6046 6.13683 23.9508 6.34845C24.297 6.56006 24.6348 6.78679 24.9642 7.02864L27.759 5.84964C28.5103 5.5171 29.2616 5.48687 30.0129 5.75895C30.7642 6.03103 31.3502 6.51472 31.771 7.21002L33.8896 10.9284C34.3103 11.6237 34.4306 12.3644 34.2502 13.1504C34.0699 13.9364 33.6642 14.5863 33.0331 15.1002L31.9062 15.9165C31.7559 16.0374 31.5906 16.1208 31.4103 16.1668C31.23 16.2127 31.0497 16.2351 30.8694 16.2339H23.8823C23.702 16.2339 23.5367 16.1734 23.3864 16.0525C23.2362 15.9316 23.131 15.7955 23.0709 15.6444C22.5901 14.4956 21.831 13.5512 20.7936 12.8112C19.7562 12.0711 18.5769 11.7005 17.2558 11.6993C15.5128 11.6993 14.0253 12.319 12.7931 13.5585C11.561 14.7979 10.9449 16.2943 10.9449 18.0477C10.9449 19.3779 11.2983 20.5647 12.0052 21.6083C12.712 22.6519 13.6358 23.4149 14.7766 23.8974C14.9268 23.9578 15.0621 24.0636 15.1823 24.2148C15.3025 24.3659 15.3626 24.5322 15.3626 24.7136V34.6444C15.3626 35.0676 15.2051 35.4304 14.8902 35.7327C14.5752 36.035 14.1767 36.1862 13.6947 36.1862ZM27.9844 30.7446C27.2331 30.7446 26.4968 30.8432 25.7756 31.0403C25.0543 31.2374 24.3782 31.5469 23.7471 31.969C23.3564 32.2108 23.0631 32.4678 22.8671 32.7399C22.6712 33.0119 22.5738 33.2991 22.575 33.6014C22.575 33.813 22.6502 33.9944 22.8004 34.1456C22.9507 34.2967 23.131 34.3723 23.3414 34.3723H32.8077C32.958 34.3723 33.0932 34.2967 33.2134 34.1456C33.3337 33.9944 33.3938 33.813 33.3938 33.6014C33.3938 33.2991 33.2964 33.0119 33.1017 32.7399C32.9069 32.4678 32.6136 32.2108 32.2217 31.969C31.5906 31.5457 30.9145 31.2356 30.1932 31.0385C29.472 30.8414 28.7357 30.7434 27.9844 30.7446ZM27.9844 28.9308C28.7357 28.9308 29.3746 28.6666 29.9011 28.1381C30.4276 27.6097 30.6903 26.967 30.6891 26.21C30.6879 25.453 30.4252 24.8109 29.9011 24.2837C29.377 23.7565 28.7381 23.4917 27.9844 23.4893C27.2307 23.4868 26.5924 23.7517 26.0695 24.2837C25.5466 24.8158 25.2833 25.4579 25.2797 26.21C25.2761 26.9622 25.5394 27.6049 26.0695 28.1381C26.5996 28.6714 27.2379 28.9356 27.9844 28.9308Z" fill="black"/>
</svg>
