<svg width="25" height="24" viewBox="0 0 25 24" fill="none" xmlns="http://www.w3.org/2000/svg">
<path d="M23.4817 13.2943C24.1728 12.5784 24.1728 11.4159 23.4817 10.7L14.6366 1.5369C13.9456 0.821033 12.8234 0.821033 12.1324 1.5369C11.4414 2.25277 11.4414 3.41533 12.1324 4.1312L19.7281 12L12.1379 19.8688C11.4469 20.5847 11.4469 21.7472 12.1379 22.4631C12.8289 23.179 13.9511 23.179 14.6422 22.4631L23.4873 13.3L23.4817 13.2943ZM4.02253 22.4574L12.8676 13.2943C13.5586 12.5784 13.5586 11.4159 12.8676 10.7L4.02253 1.5369C3.33151 0.821033 2.20929 0.821033 1.51827 1.5369C0.827244 2.25277 0.827244 3.41533 1.51827 4.1312L9.11399 12L1.5238 19.8688C0.832772 20.5847 0.832772 21.7472 1.5238 22.4631C2.21482 23.179 3.33704 23.179 4.02806 22.4631L4.02253 22.4574Z" fill="#90CA50"/>
<path d="M1.1582 1.18945C2.04571 0.270034 3.4942 0.270246 4.38184 1.18945L13.2275 10.3525C14.1056 11.2621 14.1055 12.732 13.2275 13.6416L4.7168 22.457L4.72266 22.4629L4.3877 22.8105C3.5001 23.7299 2.05164 23.7299 1.16406 22.8105C0.286027 21.9009 0.286027 20.4311 1.16406 19.5215L8.41797 12L1.1582 4.47852C0.280313 3.56892 0.28027 2.09902 1.1582 1.18945ZM11.7725 1.18945C12.66 0.270021 14.1085 0.270175 14.9961 1.18945L23.8418 10.3525C24.6047 11.1429 24.7035 12.3557 24.1406 13.2568L24.1826 13.2998L23.8467 13.6475L15.002 22.8105C14.1144 23.7299 12.6659 23.7299 11.7783 22.8105C10.9003 21.9009 10.9003 20.4311 11.7783 19.5215L19.0322 12L11.7725 4.47852C10.8945 3.56891 10.8944 2.09904 11.7725 1.18945Z" stroke="black" stroke-opacity="0.1"/>
</svg>
