<svg width="70" height="70" viewBox="0 0 70 70" fill="none" xmlns="http://www.w3.org/2000/svg">
<circle cx="35" cy="35" r="35" transform="matrix(-1 0 0 1 70 0)" fill="#FEF35A"/>
<path d="M29.2812 20.8571C24.4328 20.8571 19.7829 22.8138 16.3545 26.2966C12.9261 29.7794 11 34.5031 11 39.4286C11 44.354 12.9261 49.0777 16.3545 52.5606C19.7829 56.0434 24.4328 58 29.2812 58H39.125V52.2857H29.2812C22.25 52.2857 16.625 46.5714 16.625 39.4286C16.625 32.2857 22.25 26.5714 29.2812 26.5714H45.2281L36.5656 35.4L40.5312 39.4286L56 23.7143L40.5312 8L36.5375 12.0286L45.2281 20.8571H29.2812ZM50.375 52.2857H44.75V58H50.375V52.2857Z" fill="black"/>
</svg>
