<svg xmlns="http://www.w3.org/2000/svg" width="40" height="39" fill="none"><g filter="url(#a)"><path fill="#90CA50" d="M18.86 5.844A1.51 1.51 0 0 0 17.497 5c-.583 0-1.108.328-1.364.844l-3.044 6.2-6.799.994a1.51 1.51 0 0 0-1.216 1.017 1.5 1.5 0 0 0 .374 1.533l4.933 4.832-1.165 6.83a1.5 1.5 0 0 0 .611 1.466 1.54 1.54 0 0 0 1.6.108l6.074-3.21 6.075 3.21c.51.267 1.131.23 1.6-.108.468-.337.705-.905.61-1.467l-1.169-6.829 4.933-4.832c.407-.398.554-.994.374-1.533a1.51 1.51 0 0 0-1.216-1.017l-6.804-.994z"/><path stroke="#FEF35A" stroke-width="2" d="M17.497 4c.956 0 1.838.539 2.26 1.403l2.812 5.727 6.283.919h.003l.173.032c.86.19 1.564.816 1.845 1.657l.05.171a2.49 2.49 0 0 1-.552 2.266l-.121.128-4.56 4.465 1.082 6.312v.003l.024.177a2.5 2.5 0 0 1-.896 2.159l-.14.108c-.783.564-1.81.62-2.648.183l-.004-.002-5.607-2.965-5.607 2.965-.003.002a2.54 2.54 0 0 1-2.495-.081l-.148-.098a2.5 2.5 0 0 1-1.018-2.448v-.002l1.077-6.312-4.559-4.466a2.5 2.5 0 0 1-.625-2.557l.06-.167a2.51 2.51 0 0 1 1.96-1.53h.003l6.277-.92 2.812-5.726.002-.004.085-.157A2.52 2.52 0 0 1 17.497 4Z"/></g><defs><filter id="a" width="39" height="38" x=".5" y=".5" color-interpolation-filters="sRGB" filterUnits="userSpaceOnUse"><feFlood flood-opacity="0" result="BackgroundImageFix"/><feColorMatrix in="SourceAlpha" result="hardAlpha" values="0 0 0 0 0 0 0 0 0 0 0 0 0 0 0 0 0 0 127 0"/><feOffset dx="2.5" dy="2.5"/><feGaussianBlur stdDeviation="2.5"/><feComposite in2="hardAlpha" operator="out"/><feColorMatrix values="0 0 0 0 0 0 0 0 0 0 0 0 0 0 0 0 0 0 0.25 0"/><feBlend in2="BackgroundImageFix" result="effect1_dropShadow_2517_859"/><feBlend in="SourceGraphic" in2="effect1_dropShadow_2517_859" result="shape"/><feColorMatrix in="SourceAlpha" result="hardAlpha" values="0 0 0 0 0 0 0 0 0 0 0 0 0 0 0 0 0 0 127 0"/><feOffset dx="5" dy="5"/><feGaussianBlur stdDeviation="5"/><feComposite in2="hardAlpha" k2="-1" k3="1" operator="arithmetic"/><feColorMatrix values="0 0 0 0 0 0 0 0 0 0 0 0 0 0 0 0 0 0 0.25 0"/><feBlend in2="shape" result="effect2_innerShadow_2517_859"/></filter></defs></svg>