<svg width="20" height="22" viewBox="0 0 20 22" fill="none" xmlns="http://www.w3.org/2000/svg">
<g filter="url(#filter0_i_4939_10)">
<path d="M0 4V2C0 1.45 0.196 0.979333 0.588 0.588C0.98 0.196667 1.45067 0.000666667 2 0H4C4.28333 0 4.521 0.096 4.713 0.288C4.905 0.48 5.00067 0.717333 5 1C4.99933 1.28267 4.90333 1.52033 4.712 1.713C4.52067 1.90567 4.28333 2.00133 4 2H2V4C2 4.28333 1.904 4.521 1.712 4.713C1.52 4.905 1.28267 5.00067 1 5C0.717333 4.99933 0.48 4.90333 0.288 4.712C0.0960001 4.52067 0 4.28333 0 4ZM18 4V2H16C15.7167 2 15.4793 1.904 15.288 1.712C15.0967 1.52 15.0007 1.28267 15 1C14.9993 0.717333 15.0953 0.48 15.288 0.288C15.4807 0.096 15.718 0 16 0H18C18.55 0 19.021 0.196 19.413 0.588C19.805 0.98 20.0007 1.45067 20 2V4C20 4.28333 19.904 4.521 19.712 4.713C19.52 4.905 19.2827 5.00067 19 5C18.7173 4.99933 18.48 4.90333 18.288 4.712C18.096 4.52067 18 4.28333 18 4ZM0 20V18C0 17.7167 0.0960001 17.4793 0.288 17.288C0.48 17.0967 0.717333 17.0007 1 17C1.28267 16.9993 1.52033 17.0953 1.713 17.288C1.90567 17.4807 2.00133 17.718 2 18V20H4C4.28333 20 4.521 20.096 4.713 20.288C4.905 20.48 5.00067 20.7173 5 21C4.99933 21.2827 4.90333 21.5203 4.712 21.713C4.52067 21.9057 4.28333 22.0013 4 22H2C1.45 22 0.979333 21.8043 0.588 21.413C0.196667 21.0217 0.000666667 20.5507 0 20ZM18 22H16C15.7167 22 15.4793 21.904 15.288 21.712C15.0967 21.52 15.0007 21.2827 15 21C14.9993 20.7173 15.0953 20.48 15.288 20.288C15.4807 20.096 15.718 20 16 20H18V18C18 17.7167 18.096 17.4793 18.288 17.288C18.48 17.0967 18.7173 17.0007 19 17C19.2827 16.9993 19.5203 17.0953 19.713 17.288C19.9057 17.4807 20.0013 17.718 20 18V20C20 20.55 19.8043 21.021 19.413 21.413C19.0217 21.805 18.5507 22.0007 18 22ZM5 19C4.45 19 3.97933 18.8043 3.588 18.413C3.19667 18.0217 3.00067 17.5507 3 17V5C3 4.45 3.196 3.97933 3.588 3.588C3.98 3.19667 4.45067 3.00067 5 3H15C15.55 3 16.021 3.196 16.413 3.588C16.805 3.98 17.0007 4.45067 17 5V17C17 17.55 16.8043 18.021 16.413 18.413C16.0217 18.805 15.5507 19.0007 15 19H5ZM8 9H12C12.2833 9 12.521 8.904 12.713 8.712C12.905 8.52 13.0007 8.28267 13 8C12.9993 7.71733 12.9033 7.48 12.712 7.288C12.5207 7.096 12.2833 7 12 7H8C7.71667 7 7.47933 7.096 7.288 7.288C7.09667 7.48 7.00067 7.71733 7 8C6.99933 8.28267 7.09533 8.52033 7.288 8.713C7.48067 8.90567 7.718 9.00133 8 9ZM8 12H12C12.2833 12 12.521 11.904 12.713 11.712C12.905 11.52 13.0007 11.2827 13 11C12.9993 10.7173 12.9033 10.48 12.712 10.288C12.5207 10.096 12.2833 10 12 10H8C7.71667 10 7.47933 10.096 7.288 10.288C7.09667 10.48 7.00067 10.7173 7 11C6.99933 11.2827 7.09533 11.5203 7.288 11.713C7.48067 11.9057 7.718 12.0013 8 12ZM8 15H12C12.2833 15 12.521 14.904 12.713 14.712C12.905 14.52 13.0007 14.2827 13 14C12.9993 13.7173 12.9033 13.48 12.712 13.288C12.5207 13.096 12.2833 13 12 13H8C7.71667 13 7.47933 13.096 7.288 13.288C7.09667 13.48 7.00067 13.7173 7 14C6.99933 14.2827 7.09533 14.5203 7.288 14.713C7.48067 14.9057 7.718 15.0013 8 15Z" fill="#90CA50"/>
</g>
<defs>
<filter id="filter0_i_4939_10" x="0" y="0" width="20" height="24" filterUnits="userSpaceOnUse" color-interpolation-filters="sRGB">
<feFlood flood-opacity="0" result="BackgroundImageFix"/>
<feBlend mode="normal" in="SourceGraphic" in2="BackgroundImageFix" result="shape"/>
<feColorMatrix in="SourceAlpha" type="matrix" values="0 0 0 0 0 0 0 0 0 0 0 0 0 0 0 0 0 0 127 0" result="hardAlpha"/>
<feOffset dy="2"/>
<feGaussianBlur stdDeviation="1"/>
<feComposite in2="hardAlpha" operator="arithmetic" k2="-1" k3="1"/>
<feColorMatrix type="matrix" values="0 0 0 0 0 0 0 0 0 0 0 0 0 0 0 0 0 0 0.25 0"/>
<feBlend mode="normal" in2="shape" result="effect1_innerShadow_4939_10"/>
</filter>
</defs>
</svg>
