<svg width="37" height="37" viewBox="0 0 37 37" fill="none" xmlns="http://www.w3.org/2000/svg">
<rect width="37" height="37" rx="11" fill="#FEF35A"/>
<path d="M11.2 29C10.595 29 10.0773 28.7848 9.6468 28.3543C9.21633 27.9238 9.00073 27.4057 9 26.8V11.4C9 10.795 9.2156 10.2773 9.6468 9.8468C10.078 9.41633 10.5957 9.20073 11.2 9.2H12.3V7H14.5V9.2H23.3V7H25.5V9.2H26.6C27.205 9.2 27.7231 9.4156 28.1543 9.8468C28.5855 10.278 28.8007 10.7957 28.8 11.4V16.9H26.6V15.8H11.2V26.8H18.9V29H11.2ZM21.1 29V25.6175L27.1775 19.5675C27.3425 19.4025 27.5258 19.2833 27.7275 19.21C27.9292 19.1367 28.1308 19.1 28.3325 19.1C28.5525 19.1 28.7633 19.1414 28.965 19.2243C29.1667 19.3072 29.35 19.4307 29.515 19.595L30.5325 20.6125C30.6792 20.7775 30.7939 20.9608 30.8768 21.1625C30.9597 21.3642 31.0007 21.5658 31 21.7675C30.9993 21.9692 30.9626 22.1756 30.89 22.3868C30.8174 22.598 30.6982 22.7857 30.5325 22.95L24.4825 29H21.1ZM28.3325 22.84L29.35 21.7675L28.3325 20.75L27.2875 21.795L28.3325 22.84Z" fill="black"/>
</svg>
