<svg width="22" height="18" viewBox="0 0 22 18" fill="none" xmlns="http://www.w3.org/2000/svg">
<path d="M1.83301 3.59961V16.2002H18.333V18H1.83301C1.3469 17.9999 0.880849 17.8101 0.537109 17.4727C0.19334 17.1351 5.2791e-05 16.6775 0 16.2002V3.59961H1.83301ZM11 0L12.833 1.7998H20.167C20.6531 1.79989 21.1192 1.98972 21.4629 2.32715C21.8066 2.66462 21.9999 3.12236 22 3.59961V12.5996C22 13.077 21.8067 13.5355 21.4629 13.873C21.1192 14.2104 20.653 14.4003 20.167 14.4004H5.5C5.01394 14.4004 4.54788 14.2104 4.2041 13.873C3.86028 13.5355 3.66699 13.077 3.66699 12.5996V1.7998C3.66704 1.32249 3.86033 0.864863 4.2041 0.527344C4.5479 0.189882 5.01385 3.09914e-08 5.5 0H11ZM10.1055 6.16699V9.41016C9.916 9.3246 9.701 9.27734 9.47363 9.27734C9.08281 9.27736 8.708 9.42151 8.43164 9.67676C8.15542 9.93195 8.00006 10.2778 8 10.6387C8 10.9997 8.15527 11.3463 8.43164 11.6016C8.70799 11.8567 9.08286 12 9.47363 12C9.8644 12 10.2393 11.8567 10.5156 11.6016C10.792 11.3463 10.9473 10.9997 10.9473 10.6387V7.17773L15.1582 6.34961V8.63184C14.9687 8.54629 14.7537 8.50001 14.5264 8.5C14.1356 8.5 13.7607 8.64328 13.4844 8.89844C13.208 9.1537 13.0527 9.50034 13.0527 9.86133C13.0528 10.2222 13.2081 10.568 13.4844 10.8232C13.7607 11.0785 14.1355 11.2227 14.5264 11.2227C14.9172 11.2226 15.292 11.0785 15.5684 10.8232C15.8446 10.568 15.9999 10.2222 16 9.86133V5L10.1055 6.16699Z" fill="#90CA50"/>
</svg>
