<svg width="10" height="10" viewBox="0 0 10 10" fill="none" xmlns="http://www.w3.org/2000/svg">
<path d="M7.25 7.75V8.75C7.25 8.81667 7.275 8.875 7.325 8.925C7.375 8.975 7.43333 9 7.5 9C7.56667 9 7.625 8.975 7.675 8.925C7.725 8.875 7.75 8.81667 7.75 8.75V7.75H8.75C8.81667 7.75 8.875 7.725 8.925 7.675C8.975 7.625 9 7.56667 9 7.5C9 7.43333 8.975 7.375 8.925 7.325C8.875 7.275 8.81667 7.25 8.75 7.25H7.75V6.25C7.75 6.18333 7.725 6.125 7.675 6.075C7.625 6.025 7.56667 6 7.5 6C7.43333 6 7.375 6.025 7.325 6.075C7.275 6.125 7.25 6.18333 7.25 6.25V7.25H6.25C6.18333 7.25 6.125 7.275 6.075 7.325C6.025 7.375 6 7.43333 6 7.5C6 7.56667 6.025 7.625 6.075 7.675C6.125 7.725 6.18333 7.75 6.25 7.75H7.25ZM7.5 10C6.80833 10 6.21883 9.75617 5.7315 9.2685C5.24417 8.78083 5.00033 8.19133 5 7.5C4.99967 6.80867 5.2435 6.21917 5.7315 5.7315C6.2195 5.24383 6.809 5 7.5 5C8.191 5 8.78067 5.24383 9.269 5.7315C9.75733 6.21917 10.001 6.80867 10 7.5C9.999 8.19133 9.75517 8.781 9.2685 9.269C8.78183 9.757 8.19233 10.0007 7.5 10ZM2.5 3H6.5C6.64167 3 6.7605 2.952 6.8565 2.856C6.9525 2.76 7.00033 2.64133 7 2.5C6.99967 2.35867 6.95167 2.24 6.856 2.144C6.76033 2.048 6.64167 2 6.5 2H2.5C2.35833 2 2.23967 2.048 2.144 2.144C2.04833 2.24 2.00033 2.35867 2 2.5C1.99967 2.64133 2.04767 2.76017 2.144 2.8565C2.24033 2.95283 2.359 3.00067 2.5 3ZM1 9C0.725 9 0.489667 8.90217 0.294 8.7065C0.0983334 8.51083 0.000333333 8.27533 0 8V1C0 0.725 0.098 0.489667 0.294 0.294C0.49 0.0983334 0.725333 0.000333333 1 0H8C8.275 0 8.5105 0.098 8.7065 0.294C8.9025 0.49 9.00033 0.725333 9 1V3.725C9 3.875 8.9375 3.99167 8.8125 4.075C8.6875 4.15833 8.55417 4.175 8.4125 4.125C8.27083 4.08333 8.12283 4.052 7.9685 4.031C7.81417 4.01 7.658 3.99967 7.5 4C7.40833 4 7.32283 4.00217 7.2435 4.0065C7.16417 4.01083 7.083 4.02117 7 4.0375C6.925 4.02083 6.84167 4.0105 6.75 4.0065C6.65833 4.0025 6.575 4.00033 6.5 4H2.5C2.35833 4 2.23967 4.048 2.144 4.144C2.04833 4.24 2.00033 4.35867 2 4.5C1.99967 4.64133 2.04767 4.76017 2.144 4.8565C2.24033 4.95283 2.359 5.00067 2.5 5H5.0625C4.9125 5.14167 4.77717 5.29583 4.6565 5.4625C4.53583 5.62917 4.4295 5.80833 4.3375 6H2.5C2.35833 6 2.23967 6.048 2.144 6.144C2.04833 6.24 2.00033 6.35867 2 6.5C1.99967 6.64133 2.04767 6.76017 2.144 6.8565C2.24033 6.95283 2.359 7.00067 2.5 7H4.0375C4.02083 7.08333 4.0105 7.16467 4.0065 7.244C4.0025 7.32333 4.00033 7.40867 4 7.5C4 7.66667 4.00833 7.825 4.025 7.975C4.04167 8.125 4.07083 8.27083 4.1125 8.4125C4.15417 8.55417 4.13333 8.6875 4.05 8.8125C3.96667 8.9375 3.85417 9 3.7125 9H1Z" fill="black"/>
</svg>
