<svg width="22" height="22" viewBox="0 0 22 22" fill="none" xmlns="http://www.w3.org/2000/svg">
<path d="M2.2 4.4H0V19.8C0 20.3835 0.231785 20.9431 0.644365 21.3556C1.05694 21.7682 1.61652 22 2.2 22H17.6V19.8H2.2M17.6 5.5H14.3V11.55C14.3 12.2793 14.0103 12.9788 13.4945 13.4945C12.9788 14.0103 12.2793 14.3 11.55 14.3C10.8207 14.3 10.1212 14.0103 9.60546 13.4945C9.08973 12.9788 8.8 12.2793 8.8 11.55C8.8 10.8207 9.08973 10.1212 9.60546 9.60546C10.1212 9.08973 10.8207 8.8 11.55 8.8C12.177 8.8 12.738 9.009 13.2 9.35V3.3H17.6M19.8 0H6.6C6.01652 0 5.45694 0.231785 5.04436 0.644365C4.63178 1.05694 4.4 1.61652 4.4 2.2V15.4C4.4 15.9835 4.63178 16.5431 5.04436 16.9556C5.45694 17.3682 6.01652 17.6 6.6 17.6H19.8C20.3835 17.6 20.9431 17.3682 21.3556 16.9556C21.7682 16.5431 22 15.9835 22 15.4V2.2C22 1.61652 21.7682 1.05694 21.3556 0.644365C20.9431 0.231785 20.3835 0 19.8 0Z" fill="#90CA50"/>
</svg>
