<svg width="24" height="18" viewBox="0 0 24 18" fill="none" xmlns="http://www.w3.org/2000/svg">
<path d="M2 18C1.45 18 0.979333 17.8043 0.588 17.413C0.196667 17.0217 0.000666667 16.5507 0 16V2C0 1.45 0.196 0.979333 0.588 0.588C0.98 0.196667 1.45067 0.000666667 2 0H22C22.55 0 23.021 0.196 23.413 0.588C23.805 0.98 24.0007 1.45067 24 2V16C24 16.55 23.8043 17.021 23.413 17.413C23.0217 17.805 22.5507 18.0007 22 18H2ZM9 11C9.83333 11 10.5417 10.7083 11.125 10.125C11.7083 9.54167 12 8.83333 12 8C12 7.16667 11.7083 6.45833 11.125 5.875C10.5417 5.29167 9.83333 5 9 5C8.16667 5 7.45833 5.29167 6.875 5.875C6.29167 6.45833 6 7.16667 6 8C6 8.83333 6.29167 9.54167 6.875 10.125C7.45833 10.7083 8.16667 11 9 11ZM17.9627 14.0245C18.501 14.6363 19.4322 14.5678 20.0084 13.9916C20.5774 13.4226 20.6414 12.5218 20.1586 11.8781L19.9055 11.5406C19.6502 11.2003 19.2496 11 18.8242 11C18.2424 11 17.7168 10.6288 17.6039 10.0581C17.6026 10.0514 17.6013 10.0447 17.6 10.038C17.5333 9.69667 17.5 9.35067 17.5 9C17.5 8.64933 17.5333 8.312 17.6 7.988C17.6022 7.9775 17.6043 7.967 17.6065 7.95649C17.7263 7.38301 18.2514 7 18.8373 7C19.2545 7 19.6473 6.80358 19.8976 6.46983L20.159 6.12136C20.6416 5.47793 20.5776 4.57757 20.0088 4.00885C19.4325 3.4325 18.5011 3.36451 17.9628 3.97657C17.5243 4.47518 17.145 5.03732 16.825 5.663C16.275 6.73833 16 7.85067 16 9C16 10.1493 16.275 11.262 16.825 12.338C17.145 12.964 17.5242 13.5262 17.9627 14.0245ZM5 13.063C3.37822 13.9957 4.40823 16 6.2791 16H11.7206C13.5921 16 14.6231 13.9947 13 13.063C11.7667 12.355 10.4333 12.0007 9 12C7.56667 11.9993 6.23333 12.3537 5 13.063Z" fill="black" fill-opacity="0.5"/>
</svg>
