<svg width="26" height="22" viewBox="0 0 26 22" fill="none" xmlns="http://www.w3.org/2000/svg">
<g filter="url(#filter0_i_3011_1176)">
<path d="M2.14861 11.8111L10.3052 19.3511C10.6438 19.664 11.0906 19.8383 11.5556 19.8383C12.0205 19.8383 12.4674 19.664 12.8059 19.3511L12.9233 19.2439C12.0611 17.9879 11.5556 16.4683 11.5556 14.8324C11.5556 10.4881 15.1125 6.96609 19.5 6.96609C20.7774 6.96609 21.9826 7.26555 23.0524 7.79295C23.0931 7.50243 23.1111 7.21191 23.1111 6.91693V6.65769C23.1111 3.5335 20.8316 0.869665 17.7215 0.35567C15.6632 0.0159868 13.5688 0.681945 12.0972 2.13901L11.5556 2.67535L11.0139 2.13901C9.54236 0.681945 7.44792 0.0159868 5.38958 0.35567C2.27951 0.869665 0 3.5335 0 6.65769V6.91693C0 8.77178 0.776389 10.5462 2.14861 11.8111ZM19.5 21.2686C21.2239 21.2686 22.8772 20.5905 24.0962 19.3835C25.3152 18.1765 26 16.5394 26 14.8324C26 13.1255 25.3152 11.4884 24.0962 10.2814C22.8772 9.07442 21.2239 8.39634 19.5 8.39634C17.7761 8.39634 16.1228 9.07442 14.9038 10.2814C13.6848 11.4884 13 13.1255 13 14.8324C13 16.5394 13.6848 18.1765 14.9038 19.3835C16.1228 20.5905 17.7761 21.2686 19.5 21.2686ZM20.2222 11.972V14.1173H22.3889C22.7861 14.1173 23.1111 14.4391 23.1111 14.8324C23.1111 15.2258 22.7861 15.5476 22.3889 15.5476H20.2222V17.6929C20.2222 18.0863 19.8972 18.4081 19.5 18.4081C19.1028 18.4081 18.7778 18.0863 18.7778 17.6929V15.5476H16.6111C16.2139 15.5476 15.8889 15.2258 15.8889 14.8324C15.8889 14.4391 16.2139 14.1173 16.6111 14.1173H18.7778V11.972C18.7778 11.5786 19.1028 11.2568 19.5 11.2568C19.8972 11.2568 20.2222 11.5786 20.2222 11.972Z" fill="#90CA50"/>
</g>
<defs>
<filter id="filter0_i_3011_1176" x="0" y="0.268555" width="26" height="23" filterUnits="userSpaceOnUse" color-interpolation-filters="sRGB">
<feFlood flood-opacity="0" result="BackgroundImageFix"/>
<feBlend mode="normal" in="SourceGraphic" in2="BackgroundImageFix" result="shape"/>
<feColorMatrix in="SourceAlpha" type="matrix" values="0 0 0 0 0 0 0 0 0 0 0 0 0 0 0 0 0 0 127 0" result="hardAlpha"/>
<feOffset dy="2"/>
<feGaussianBlur stdDeviation="1"/>
<feComposite in2="hardAlpha" operator="arithmetic" k2="-1" k3="1"/>
<feColorMatrix type="matrix" values="0 0 0 0 0 0 0 0 0 0 0 0 0 0 0 0 0 0 0.25 0"/>
<feBlend mode="normal" in2="shape" result="effect1_innerShadow_3011_1176"/>
</filter>
</defs>
</svg>
