<svg width="22" height="17" viewBox="0 0 22 17" fill="none" xmlns="http://www.w3.org/2000/svg">
<path d="M12.6572 0C12.8029 -2.81425e-07 12.9428 0.0558744 13.0459 0.155273C13.1489 0.254664 13.2067 0.389605 13.207 0.530273L13.2148 3.1875C13.2148 3.46999 13.3313 3.74068 13.5381 3.94043C13.7448 4.14014 14.025 4.25288 14.3174 4.25293C14.6098 4.25293 14.8909 4.14019 15.0977 3.94043C15.3043 3.7407 15.4199 3.46986 15.4199 3.1875V0.547852C15.42 0.477463 15.4346 0.407636 15.4629 0.342773C15.4912 0.277899 15.5328 0.21909 15.585 0.169922C15.6372 0.120737 15.6997 0.0823511 15.7676 0.0566406C15.8356 0.0309301 15.9085 0.0186631 15.9814 0.0205078C18.3648 0.0800171 19.7708 0.314397 20.7354 1.24512C21.6251 2.10255 21.9025 3.31822 21.9883 5.30078C22.0059 5.69497 22.0144 5.89177 21.9385 6.02246C21.8625 6.1531 21.5588 6.31754 20.9521 6.64453C20.6103 6.82862 20.3253 7.09791 20.127 7.42383C19.9286 7.74996 19.8232 8.12176 19.8232 8.5C19.8232 8.87824 19.9286 9.25004 20.127 9.57617C20.3253 9.90209 20.6103 10.1714 20.9521 10.3555C21.5588 10.6835 21.8614 10.8469 21.9385 10.9775C22.0144 11.1082 22.0058 11.3061 21.9893 11.6992C21.9024 13.6818 21.6262 14.8985 20.7354 15.7549C19.8488 16.6113 18.5892 16.878 16.54 16.9619C16.02 16.9832 15.7613 16.9938 15.5908 16.8379C15.4214 16.6806 15.4209 16.4241 15.4209 15.9131V13.8125C15.4209 13.5301 15.3053 13.2593 15.0986 13.0596C14.8918 12.8598 14.6108 12.7471 14.3184 12.7471C14.026 12.7472 13.7458 12.8599 13.5391 13.0596C13.3323 13.2593 13.2158 13.53 13.2158 13.8125L13.209 15.9404C13.2079 16.4406 13.2073 16.6896 13.0459 16.8447C12.8842 16.9998 12.6254 17 12.1064 17H8.7959C4.6373 17 2.55804 17 1.26562 15.7549C0.375808 14.8985 0.0984951 13.6819 0.0126953 11.6982C-0.0049034 11.3051 -0.0133945 11.1082 0.0625 10.9775C0.138718 10.8469 0.442232 10.6835 1.04883 10.3555C1.39074 10.1713 1.67571 9.90219 1.87402 9.57617C2.07234 9.25004 2.17676 8.87824 2.17676 8.5C2.17676 8.12176 2.07234 7.74996 1.87402 7.42383C1.67571 7.09781 1.39074 6.82866 1.04883 6.64453C0.442232 6.31758 0.139813 6.15309 0.0625 6.02246C-0.0133945 5.89177 -0.00478004 5.69391 0.0117188 5.30078C0.0986144 3.31818 0.374696 2.10149 1.26562 1.24512C2.558 8.40188e-05 4.63672 1.30789e-09 8.79395 0H12.6572ZM9.64355 5.23535C9.48234 5.23535 9.31355 5.25001 9.1377 5.2793C8.9617 5.3013 8.83262 5.31932 8.75195 5.33398V7.9082H6.64062V6.14844C6.64062 5.95777 6.61822 5.80288 6.57422 5.68555C6.53022 5.56841 6.46388 5.47706 6.37598 5.41113C6.28799 5.34518 6.17785 5.30129 6.0459 5.2793C5.92134 5.25002 5.77491 5.23536 5.60645 5.23535C5.4452 5.23535 5.27648 5.25 5.10059 5.2793C4.92459 5.3013 4.79551 5.31932 4.71484 5.33398V11.1416C4.71484 11.332 4.73736 11.4862 4.78125 11.6035C4.82525 11.7208 4.89149 11.8129 4.97949 11.8789C5.06737 11.9448 5.17342 11.9887 5.29785 12.0107C5.4298 12.0401 5.58044 12.0547 5.74902 12.0547C5.91755 12.0547 6.08635 12.0444 6.25488 12.0225C6.43088 12.0005 6.55996 11.9781 6.64062 11.9561V9.42578H8.75195V11.1416C8.75195 11.3321 8.77446 11.4862 8.81836 11.6035C8.86236 11.7208 8.9286 11.8129 9.0166 11.8789C9.10449 11.9448 9.21052 11.9887 9.33496 12.0107C9.46693 12.0401 9.61751 12.0547 9.78613 12.0547C9.9547 12.0547 10.1234 12.0444 10.292 12.0225C10.4677 12.0005 10.5961 11.978 10.6768 11.9561V6.14844C10.6768 5.95777 10.6553 5.80288 10.6113 5.68555C10.5673 5.56839 10.501 5.47706 10.4131 5.41113C10.3251 5.34515 10.215 5.30129 10.083 5.2793C9.95845 5.25001 9.81202 5.23537 9.64355 5.23535ZM14.3174 6.37207C14.025 6.37212 13.7448 6.48486 13.5381 6.68457C13.3313 6.88432 13.2148 7.15501 13.2148 7.4375V9.5625C13.2148 9.84514 13.3312 10.1166 13.5381 10.3164C13.745 10.5161 14.0259 10.6279 14.3184 10.6279C14.6109 10.6279 14.8918 10.5162 15.0986 10.3164C15.3055 10.1166 15.4199 9.84512 15.4199 9.5625V7.4375C15.4199 7.15514 15.3043 6.8843 15.0977 6.68457C14.8909 6.48482 14.6098 6.37207 14.3174 6.37207Z" fill="#90CA50"/>
</svg>
