<svg width="54" height="59" fill="none" xmlns="http://www.w3.org/2000/svg"><path d="M53 26c0 14.36 4.502 32.5-26 32.5C-3.5 58.5 1 40.36 1 26S12.642 0 27 0c14.36 0 26 11.64 26 26Z" fill="#8EC84E"/><path d="M26.5 40C34.475 40 41 33.475 41 25.5S34.475 11 26.5 11 12 17.525 12 25.5 18.525 40 26.5 40Zm.435-21.33c.29-.26.638-.42 1.015-.42.392 0 .725.16 1.03.42.275.305.42.653.42 1.03 0 .392-.145.725-.42 1.03-.305.275-.639.42-1.03.42-.377 0-.725-.145-1.015-.42-.275-.305-.435-.639-.435-1.03 0-.377.16-.725.435-1.03Zm-3.625 6.786s3.146-2.494 4.292-2.595c1.073-.087.855 1.145.754 1.784l-.015.087c-.203.768-.449 1.696-.696 2.58-.55 2.016-1.087 3.988-.956 4.35.145.494 1.044-.13 1.696-.565.087-.058.16-.116.232-.16 0 0 .116-.116.232.044.029.043.058.087.087.116.13.203.203.275.029.391l-.058.03c-.319.217-1.682 1.174-2.233 1.522-.595.392-2.871 1.697-2.523-.841.305-1.783.71-3.32 1.03-4.524.594-2.175.855-3.161-.479-2.306a19.36 19.36 0 0 0-1.044.653c-.16.116-.174.116-.276-.072l-.043-.087-.072-.116c-.102-.145-.102-.16.043-.29Z" fill="#000"/></svg>