<svg width="25" height="32" fill="none" xmlns="http://www.w3.org/2000/svg"><path d="M25 12.5c0 33-5.596 12.5-12.5 12.5S0 45.5 0 12.5C0 5.596 5.596 0 12.5 0S25 5.596 25 12.5Z" fill="#EDEDED"/><path d="M12.5 20c4.125 0 7.5-3.375 7.5-7.5S16.625 5 12.5 5 5 8.375 5 12.5 8.375 20 12.5 20Zm.225-11.033a.785.785 0 0 1 .525-.217c.203 0 .375.082.533.217A.782.782 0 0 1 14 9.5a.768.768 0 0 1-.217.533.75.75 0 0 1-1.058 0A.776.776 0 0 1 12.5 9.5a.79.79 0 0 1 .225-.533Zm-1.875 3.51s1.627-1.29 2.22-1.342c.555-.045.442.592.39.922l-.008.045c-.104.398-.232.878-.36 1.335-.285 1.043-.562 2.063-.495 2.25.075.256.54-.067.878-.292.045-.03.082-.06.12-.082 0 0 .06-.06.12.022.015.022.03.045.045.06.068.105.105.143.015.203l-.03.014c-.165.113-.87.608-1.155.788-.307.203-1.485.878-1.305-.435.158-.922.367-1.717.533-2.34.307-1.125.442-1.635-.248-1.193-.277.165-.443.27-.54.338-.082.06-.09.06-.143-.037l-.022-.046-.037-.06c-.053-.075-.053-.082.022-.15Z" fill="#000"/></svg>