<svg width="51" height="51" fill="none" xmlns="http://www.w3.org/2000/svg"><path d="M14.79 0h21.42C44.37 0 51 6.63 51 14.79v21.42A14.79 14.79 0 0 1 36.21 51H14.79C6.63 51 0 44.37 0 36.21V14.79A14.79 14.79 0 0 1 14.79 0Zm-.51 5.1a9.18 9.18 0 0 0-9.18 9.18v22.44a9.174 9.174 0 0 0 9.18 9.18h22.44a9.18 9.18 0 0 0 9.18-9.18V14.28a9.174 9.174 0 0 0-9.18-9.18H14.28Zm24.608 3.825a3.188 3.188 0 1 1 0 6.375 3.188 3.188 0 0 1 0-6.375ZM25.5 12.75a12.75 12.75 0 1 1 0 25.5 12.75 12.75 0 0 1 0-25.5Zm0 5.1a7.65 7.65 0 1 0 0 15.3 7.65 7.65 0 0 0 0-15.3Z" fill="#000"/></svg>