<svg width="25" height="25" viewBox="0 0 25 25" fill="none" xmlns="http://www.w3.org/2000/svg">
<path d="M9.05 12.5C9.05 12.805 8.92884 13.0975 8.71317 13.3132C8.49751 13.5288 8.205 13.65 7.9 13.65C7.595 13.65 7.30249 13.5288 7.08683 13.3132C6.87116 13.0975 6.75 12.805 6.75 12.5C6.75 12.195 6.87116 11.9025 7.08683 11.6868C7.30249 11.4712 7.595 11.35 7.9 11.35C8.205 11.35 8.49751 11.4712 8.71317 11.6868C8.92884 11.9025 9.05 12.195 9.05 12.5ZM13.65 12.5C13.65 12.805 13.5288 13.0975 13.3132 13.3132C13.0975 13.5288 12.805 13.65 12.5 13.65C12.195 13.65 11.9025 13.5288 11.6868 13.3132C11.4712 13.0975 11.35 12.805 11.35 12.5C11.35 12.195 11.4712 11.9025 11.6868 11.6868C11.9025 11.4712 12.195 11.35 12.5 11.35C12.805 11.35 13.0975 11.4712 13.3132 11.6868C13.5288 11.9025 13.65 12.195 13.65 12.5ZM18.25 12.5C18.25 12.805 18.1288 13.0975 17.9132 13.3132C17.6975 13.5288 17.405 13.65 17.1 13.65C16.795 13.65 16.5025 13.5288 16.2868 13.3132C16.0712 13.0975 15.95 12.805 15.95 12.5C15.95 12.195 16.0712 11.9025 16.2868 11.6868C16.5025 11.4712 16.795 11.35 17.1 11.35C17.405 11.35 17.6975 11.4712 17.9132 11.6868C18.1288 11.9025 18.25 12.195 18.25 12.5Z" fill="#90CA50"/>
<path d="M24 12.5C24 17.9211 24 20.6316 22.3152 22.3152C20.6328 24 17.9211 24 12.5 24C7.0789 24 4.36835 24 2.6836 22.3152C1 20.6328 1 17.9211 1 12.5C1 7.0789 1 4.36835 2.6836 2.6836C4.3695 1 7.0789 1 12.5 1C17.9211 1 20.6316 1 22.3152 2.6836C23.4353 3.8037 23.8102 5.37805 23.9367 7.9" stroke="#90CA50" stroke-width="2" stroke-linecap="round"/>
</svg>
