<svg width="17" height="25" fill="none" xmlns="http://www.w3.org/2000/svg"><path d="M8.059 11.484a2.81 2.81 0 0 1-2.035-.885 3.1 3.1 0 0 1-.843-2.137 3.1 3.1 0 0 1 .843-2.137 2.81 2.81 0 0 1 2.035-.885 2.81 2.81 0 0 1 2.035.885 3.1 3.1 0 0 1 .843 2.137c0 .397-.074.79-.22 1.156-.144.367-.356.7-.623.98-.267.281-.585.504-.934.656a2.76 2.76 0 0 1-1.101.23ZM8.059 0C5.92 0 3.872.892 2.36 2.478.85 4.065 0 6.218 0 8.462c0 6.346 8.059 15.715 8.059 15.715s8.059-9.369 8.059-15.715c0-2.244-.85-4.397-2.36-5.984C12.245.892 10.195 0 8.057 0Z" fill="#90CA50"/><path d="M5.662 10.944a3.31 3.31 0 0 0 2.397 1.04c.447 0 .889-.093 1.3-.272.412-.179.785-.44 1.097-.768.313-.329.56-.717.727-1.142.168-.426.254-.881.254-1.34a3.6 3.6 0 0 0-.98-2.482 3.31 3.31 0 0 0-2.398-1.04 3.31 3.31 0 0 0-2.397 1.04 3.6 3.6 0 0 0-.981 2.482c0 .926.35 1.82.98 2.482Zm2.397 12.451A55.602 55.602 0 0 1 4.45 18.43c-.998-1.554-1.99-3.294-2.73-5.03C.975 11.655.5 9.951.5 8.461c0-2.12.802-4.147 2.222-5.639C4.142 1.333 6.062.5 8.06.5c1.997 0 3.917.833 5.336 2.323 1.42 1.492 2.223 3.52 2.223 5.639 0 1.49-.476 3.194-1.22 4.936-.74 1.737-1.732 3.477-2.73 5.03a55.604 55.604 0 0 1-3.61 4.967Z" stroke="#000" stroke-opacity=".05"/></svg>