<svg width="51" height="56" viewBox="0 0 51 56" fill="none" xmlns="http://www.w3.org/2000/svg">
<path d="M50.8586 18.2254C51.1968 19.1772 50.9115 20.2383 50.1823 20.9166L45.6062 25.2268C45.7224 26.1348 45.7858 27.0647 45.7858 28.0055C45.7858 28.9463 45.7224 29.8761 45.6062 30.7841L50.1823 35.0944C50.9115 35.7726 51.1968 36.8338 50.8586 37.7855C50.3936 39.0873 49.8335 40.3344 49.1888 41.5378L48.6921 42.4239C47.9946 43.6273 47.2126 44.765 46.3565 45.8371C45.733 46.6247 44.6973 46.8873 43.7673 46.581L37.8808 44.6447C36.4646 45.7714 34.9005 46.7122 33.2307 47.4233L31.9097 53.6699C31.6983 54.6654 30.9585 55.453 29.9862 55.6171C28.5278 55.8687 27.0271 56 25.4947 56C23.9623 56 22.4616 55.8687 21.0032 55.6171C20.0309 55.453 19.2911 54.6654 19.0798 53.6699L17.7587 47.4233C16.0889 46.7122 14.5248 45.7714 13.1087 44.6447L7.2327 46.5919C6.30269 46.8982 5.267 46.6247 4.64347 45.848C3.78744 44.7759 3.00539 43.6382 2.30788 42.4348L1.81117 41.5487C1.1665 40.3454 0.606383 39.0983 0.141378 37.7964C-0.196807 36.8447 0.0885366 35.7836 0.817749 35.1053L5.39382 30.7951C5.27757 29.8761 5.21416 28.9463 5.21416 28.0055C5.21416 27.0647 5.27757 26.1348 5.39382 25.2268L0.817749 20.9166C0.0885366 20.2383 -0.196807 19.1772 0.141378 18.2254C0.606383 16.9236 1.1665 15.6765 1.81117 14.4731L2.30788 13.587C3.00539 12.3837 3.78744 11.2459 4.64347 10.1739C5.267 9.38621 6.30269 9.12366 7.2327 9.42997L13.1192 11.3663C14.5354 10.2395 16.0995 9.29869 17.7693 8.58762L19.0903 2.34108C19.3017 1.34558 20.0415 0.557921 21.0138 0.393827C22.4722 0.131276 23.9729 0 25.5053 0C27.0377 0 28.5384 0.131276 29.9968 0.382887C30.9691 0.546982 31.7089 1.33464 31.9202 2.33014L33.2413 8.57668C34.9111 9.28775 36.4752 10.2286 37.8913 11.3553L43.7779 9.41903C44.7079 9.11272 45.7436 9.38621 46.3671 10.1629C47.2231 11.235 48.0052 12.3727 48.7027 13.5761L49.1994 14.4622C49.8441 15.6656 50.4042 16.9127 50.8692 18.2145L50.8586 18.2254ZM25.5053 36.7572C27.7476 36.7572 29.8981 35.8351 31.4836 34.1939C33.0692 32.5526 33.9599 30.3266 33.9599 28.0055C33.9599 25.6844 33.0692 23.4583 31.4836 21.8171C29.8981 20.1758 27.7476 19.2538 25.5053 19.2538C23.263 19.2538 21.1125 20.1758 19.527 21.8171C17.9414 23.4583 17.0506 25.6844 17.0506 28.0055C17.0506 30.3266 17.9414 32.5526 19.527 34.1939C21.1125 35.8351 23.263 36.7572 25.5053 36.7572Z" fill="black"/>
</svg>
