<svg width="27" height="22" viewBox="0 0 27 22" fill="none" xmlns="http://www.w3.org/2000/svg">
<path d="M21.3496 16.0264C21.3496 16.9468 20.8451 17.8047 20.0371 18.2461L13.7227 21.6885C12.965 22.1045 12.0555 22.1046 11.2979 21.6885L4.98438 18.2461C4.17623 17.8047 3.6709 16.9469 3.6709 16.0264V12.4834L11.2979 16.6445C12.0555 17.0606 12.965 17.0606 13.7227 16.6445L21.3496 12.4834V16.0264ZM12.5107 0C12.9334 2.88134e-05 13.3497 0.103186 13.7227 0.301758L25.7441 6.84668C26.1481 7.07361 26.4013 7.4896 26.4014 7.95605V16.0391C26.4014 16.7324 25.833 17.2995 25.1387 17.2998C24.4442 17.2998 23.875 16.7326 23.875 16.0391V8.58691L13.7227 14.1221C12.965 14.5382 12.0555 14.5382 11.2979 14.1221L0.65332 8.32227C-0.217987 7.84309 -0.217987 6.58171 0.65332 6.10254L11.2979 0.301758C11.6709 0.103058 12.0879 0 12.5107 0ZM9.97363 4.39941C9.65155 4.39978 9.3754 4.50769 9.14551 4.72266C8.91552 4.9379 8.7998 5.19749 8.7998 5.5V9.90039C8.8003 10.2031 8.91602 10.4616 9.14551 10.6768C9.3751 10.892 9.65095 11 9.97363 11H14.667C14.9901 11.0004 15.2665 10.8924 15.4961 10.6768C15.7254 10.4613 15.8407 10.2026 15.8408 9.90039V8.25L17.1016 9.43262C17.1993 9.52429 17.3075 9.54681 17.4248 9.50098C17.5419 9.45514 17.6005 9.3683 17.6006 9.24023V6.16016C17.6006 6.03189 17.542 5.94429 17.4248 5.89844C17.3075 5.8526 17.1993 5.8761 17.1016 5.96777L15.8408 7.14941V5.5C15.8412 5.19785 15.7261 4.93827 15.4961 4.72266C15.2662 4.50719 14.9896 4.39941 14.667 4.39941H9.97363Z" fill="#90CA50"/>
</svg>
