<svg width="45" height="43" fill="none" xmlns="http://www.w3.org/2000/svg"><path d="m24.008 40.148-1.508 1.38-3.262-2.986C7.65 27.972 0 20.979 0 12.447 0 5.454 5.445 0 12.375 0 16.29 0 20.047 1.833 22.5 4.707 24.953 1.833 28.71 0 32.625 0 39.555 0 45 5.454 45 12.447c0 3.237-1.125 6.247-3.105 9.302a13.465 13.465 0 0 0-4.568-1.29c2.048-2.806 3.173-5.409 3.173-8.012 0-4.526-3.375-7.92-7.875-7.92-3.465 0-6.84 2.262-8.032 5.34h-4.186c-1.192-3.078-4.567-5.34-8.032-5.34-4.5 0-7.875 3.394-7.875 7.92 0 6.54 7.065 12.99 17.753 22.745l.247.226.09-.09c.18 1.72.675 3.35 1.418 4.82Zm9.742-15.253v6.79H27v4.526h6.75V43h4.5v-6.79H45v-4.526h-6.75v-6.79h-4.5Z" fill="#000"/></svg>