<svg width="28" height="29" viewBox="0 0 28 29" fill="none" xmlns="http://www.w3.org/2000/svg">
<path fill-rule="evenodd" clip-rule="evenodd" d="M0 10.5818V18.4182C0 22.1141 1.51721e-07 23.9604 1.18918 25.1092C2.268 26.1516 3.94635 26.2466 7.112 26.2563C6.94565 25.1688 6.91106 23.8718 6.90118 22.3445C6.90118 22.1891 6.9325 22.0352 6.99336 21.8916C7.05422 21.748 7.14341 21.6176 7.25585 21.5077C7.36828 21.3979 7.50175 21.3108 7.64862 21.2515C7.79548 21.1922 7.95287 21.1617 8.11177 21.1619C8.27075 21.16 8.42855 21.1888 8.57618 21.2465C8.7238 21.3043 8.85836 21.3899 8.97215 21.4985C9.08594 21.6071 9.17675 21.7366 9.23938 21.8795C9.30201 22.0225 9.33524 22.1761 9.33718 22.3316C9.34706 24.0458 9.39153 25.2606 9.56776 26.1822C9.73741 27.0715 10.0075 27.5838 10.4028 27.9673C10.8525 28.4023 11.4833 28.6842 12.6758 28.8373C13.9012 28.9984 15.5252 29 17.8558 29H19.4781C21.8087 29 23.4327 28.9968 24.6598 28.8389C25.8506 28.6842 26.4814 28.4007 26.9294 27.9673C27.3791 27.5323 27.6722 26.9233 27.832 25.7729C27.9967 24.5904 28 23.0196 28 20.7704V8.22956C28 5.97883 27.9967 4.41122 27.832 3.22706C27.6722 2.07672 27.3791 1.46611 26.9311 1.03272C26.4814 0.597722 25.8506 0.315778 24.6581 0.162722C23.4344 1.12731e-07 21.8104 0 19.4798 0H17.8574C15.5268 0 13.9028 0.00322206 12.6758 0.161111C11.4849 0.315778 10.8541 0.599333 10.4045 1.03272C10.0092 1.41456 9.73906 1.9285 9.56941 2.81783C9.39318 3.73939 9.34871 4.95417 9.33882 6.66839C9.33689 6.8239 9.30366 6.97751 9.24103 7.12046C9.17839 7.26341 9.08759 7.39288 8.9738 7.5015C8.86 7.61012 8.72545 7.69574 8.57783 7.75349C8.4302 7.81124 8.27239 7.83997 8.11341 7.83806C7.95451 7.83827 7.79713 7.80784 7.65026 7.7485C7.5034 7.68917 7.36993 7.60209 7.2575 7.49226C7.14506 7.38243 7.05586 7.252 6.99501 7.10842C6.93415 6.96484 6.90282 6.81093 6.90282 6.6555C6.91271 5.12817 6.94729 3.83122 7.11365 2.74372C3.948 2.75339 2.27129 2.84844 1.19082 3.89083C0.00164708 5.03956 0 6.8875 0 10.5818ZM4.01059 15.3313C3.89764 15.2229 3.80792 15.0935 3.74668 14.9508C3.68543 14.8081 3.65389 14.6548 3.65389 14.5C3.65389 14.3452 3.68543 14.1919 3.74668 14.0492C3.80792 13.9065 3.89764 13.7771 4.01059 13.6687L7.25529 10.5334C7.48509 10.3125 7.79445 10.1886 8.11671 10.1886C8.43896 10.1886 8.74832 10.3125 8.97812 10.5334C9.09107 10.6419 9.18078 10.7712 9.24203 10.914C9.30327 11.0567 9.33482 11.21 9.33482 11.3648C9.33482 11.5196 9.30327 11.6728 9.24203 11.8156C9.18078 11.9583 9.09107 12.0877 8.97812 12.1961L7.80871 13.3239H19.4798C20.1518 13.3239 20.6986 13.8507 20.6986 14.5C20.6986 15.1493 20.1518 15.6761 19.4798 15.6761H7.80706L8.97647 16.8039C9.08942 16.9123 9.17914 17.0417 9.24038 17.1844C9.30163 17.3272 9.33317 17.4804 9.33317 17.6352C9.33317 17.79 9.30163 17.9433 9.24038 18.086C9.17914 18.2288 9.08942 18.3581 8.97647 18.4666C8.74667 18.6876 8.43732 18.8114 8.11506 18.8114C7.7928 18.8114 7.48344 18.6876 7.25365 18.4666L4.01059 15.3313Z" fill="black"/>
</svg>
