<svg width="13" height="11" viewBox="0 0 13 11" fill="none" xmlns="http://www.w3.org/2000/svg">
<path d="M1.95 2.75C1.95 2.02065 2.22393 1.32118 2.71152 0.805456C3.19912 0.289731 3.86044 0 4.55 0C5.23956 0 5.90088 0.289731 6.38848 0.805456C6.87607 1.32118 7.15 2.02065 7.15 2.75C7.15 3.47935 6.87607 4.17882 6.38848 4.69454C5.90088 5.21027 5.23956 5.5 4.55 5.5C3.86044 5.5 3.19912 5.21027 2.71152 4.69454C2.22393 4.17882 1.95 3.47935 1.95 2.75ZM0 10.3619C0 8.2457 1.62094 6.53125 3.62172 6.53125H5.47828C7.47906 6.53125 9.1 8.2457 9.1 10.3619C9.1 10.7143 8.82984 11 8.49672 11H0.603281C0.270156 11 0 10.7143 0 10.3619ZM12.3764 11H9.57734C9.68703 10.798 9.75203 10.5639 9.75203 10.3125V10.1406C9.75203 8.83652 9.20156 7.66563 8.33422 6.8793C8.38297 6.87715 8.42969 6.875 8.47844 6.875H9.72562C11.5334 6.875 13 8.42617 13 10.3404C13 10.7057 12.7197 11 12.3764 11ZM8.775 5.5C8.14531 5.5 7.57656 5.2293 7.16422 4.79316C7.56437 4.22168 7.8 3.51484 7.8 2.75C7.8 2.17422 7.66594 1.63066 7.42828 1.15371C7.80609 0.861523 8.27125 0.6875 8.775 0.6875C10.0323 0.6875 11.05 1.76387 11.05 3.09375C11.05 4.42363 10.0323 5.5 8.775 5.5Z" fill="black"/>
</svg>
