<svg width="34" height="34" fill="none" xmlns="http://www.w3.org/2000/svg"><path d="M16.667 0a16.667 16.667 0 1 0 0 33.334 16.667 16.667 0 0 0 0-33.334ZM8.45 27.133c.717-1.5 5.083-2.966 8.217-2.966 3.133 0 7.5 1.466 8.216 2.966A13.154 13.154 0 0 1 16.667 30c-3.1 0-5.95-1.067-8.217-2.867Zm18.817-2.416c-2.384-2.9-8.167-3.884-10.6-3.884-2.434 0-8.217.984-10.6 3.884a13.213 13.213 0 0 1-2.734-8.05c0-7.35 5.984-13.334 13.334-13.334S30 9.317 30 16.667c0 3.033-1.033 5.833-2.733 8.05Zm-10.6-18.05a5.818 5.818 0 0 0-5.834 5.833c0 3.233 2.6 5.833 5.834 5.833 3.233 0 5.833-2.6 5.833-5.833s-2.6-5.833-5.833-5.833Zm0 8.333a2.5 2.5 0 1 1 0-5 2.5 2.5 0 0 1 0 5Z" fill="#000"/></svg>