<svg width="23" height="23" viewBox="0 0 23 23" fill="none" xmlns="http://www.w3.org/2000/svg">
<path fill-rule="evenodd" clip-rule="evenodd" d="M1.6836 1.6836C0 3.3695 0 6.0789 0 11.5C0 16.9211 0 19.6316 1.6836 21.3152C3.3695 23 6.0789 23 11.5 23C16.9211 23 19.6316 23 21.3152 21.3152C23 19.6328 23 16.9211 23 11.5C23 6.0789 23 3.36835 21.3152 1.6836C19.6328 0 16.9211 0 11.5 0C6.0789 0 3.36835 0 1.6836 1.6836ZM11.5 12.65C11.805 12.65 12.0975 12.5288 12.3132 12.3132C12.5288 12.0975 12.65 11.805 12.65 11.5C12.65 11.195 12.5288 10.9025 12.3132 10.6868C12.0975 10.4712 11.805 10.35 11.5 10.35C11.195 10.35 10.9025 10.4712 10.6868 10.6868C10.4712 10.9025 10.35 11.195 10.35 11.5C10.35 11.805 10.4712 12.0975 10.6868 12.3132C10.9025 12.5288 11.195 12.65 11.5 12.65ZM8.05 11.5C8.05 11.805 7.92884 12.0975 7.71317 12.3132C7.49751 12.5288 7.205 12.65 6.9 12.65C6.595 12.65 6.30249 12.5288 6.08683 12.3132C5.87116 12.0975 5.75 11.805 5.75 11.5C5.75 11.195 5.87116 10.9025 6.08683 10.6868C6.30249 10.4712 6.595 10.35 6.9 10.35C7.205 10.35 7.49751 10.4712 7.71317 10.6868C7.92884 10.9025 8.05 11.195 8.05 11.5ZM16.1 12.65C16.405 12.65 16.6975 12.5288 16.9132 12.3132C17.1288 12.0975 17.25 11.805 17.25 11.5C17.25 11.195 17.1288 10.9025 16.9132 10.6868C16.6975 10.4712 16.405 10.35 16.1 10.35C15.795 10.35 15.5025 10.4712 15.2868 10.6868C15.0712 10.9025 14.95 11.195 14.95 11.5C14.95 11.805 15.0712 12.0975 15.2868 12.3132C15.5025 12.5288 15.795 12.65 16.1 12.65Z" fill="#FEF35A"/>
<rect x="4" y="4" width="16" height="15" fill="#FEF35A"/>
<path d="M5.8125 5.60001H17.1875C17.4177 5.60001 17.6108 5.52321 17.7668 5.36961C17.9228 5.21601 18.0005 5.02614 18 4.80001C17.9995 4.57388 17.9215 4.38374 17.766 4.22961C17.6105 4.07548 17.4177 3.99894 17.1875 4.00001H5.8125C5.58229 4.00001 5.38946 4.07681 5.234 4.23041C5.07854 4.38401 5.00054 4.57388 5 4.80001C4.99946 5.02614 5.07746 5.21601 5.234 5.36961C5.39054 5.52321 5.58338 5.60001 5.8125 5.60001ZM11.5 7.70001C11.3781 7.70001 11.2598 7.72668 11.1449 7.78001C11.0301 7.83334 10.9318 7.91334 10.85 8.02001L6.82813 13.1C6.625 13.3667 6.59792 13.6499 6.74688 13.9496C6.89584 14.2493 7.13959 14.3995 7.47813 14.4H9.0625V19.2C9.0625 19.4267 9.1405 19.6165 9.2965 19.7696C9.4525 19.9227 9.64533 19.9995 9.875 20H13.125C13.3552 20 13.5483 19.9232 13.7043 19.7696C13.8603 19.616 13.938 19.4261 13.9375 19.2V14.4H15.5219C15.8604 14.4 16.1042 14.2499 16.2531 13.9496C16.4021 13.6493 16.375 13.3661 16.1719 13.1L12.15 8.02001C12.0688 7.91334 11.9704 7.83334 11.8551 7.78001C11.7397 7.72668 11.6213 7.70001 11.5 7.70001Z" fill="black"/>
</svg>
