<svg width="37" height="37" viewBox="0 0 37 37" fill="none" xmlns="http://www.w3.org/2000/svg">
<rect width="37" height="37" rx="11" fill="#FEF35A"/>
<path d="M10.5256 10.02V8.75C10.5256 8.34 10.1798 8 9.76278 8C9.34579 8 9 8.34 9 8.75V12C9 12.55 9.45767 13 10.017 13H13.3224C13.7394 13 14.0852 12.66 14.0852 12.25C14.0852 11.84 13.7394 11.5 13.3224 11.5H11.1256C13.2716 9.64 16.0888 8.5 19.1704 8.5C23.6658 8.5 26.5643 10.69 27.5611 12.6C27.6831 12.85 27.9475 13 28.2323 13C28.8018 13 29.1782 12.41 28.9137 11.92C27.6119 9.39 24.0624 7 19.1704 7C15.8956 7 12.8851 8.13 10.5256 10.02ZM12.2545 23.43C12.2545 22.78 12.8648 22.3 13.5157 22.44L17.1364 23.24V12.5C17.1364 11.67 17.8178 11 18.6619 11C19.5061 11 20.1875 11.67 20.1875 12.5V18.5H21.113C21.4283 18.5 21.7436 18.57 22.0182 18.71L26.1779 20.75C26.961 21.13 27.4085 21.97 27.2864 22.82L26.6457 27.28C26.5033 28.27 25.6388 29 24.632 29H18.367C17.8279 29 17.055 28.79 16.6787 28.41L12.5393 24.12C12.3558 23.9358 12.2534 23.6879 12.2545 23.43Z" fill="black"/>
</svg>
