<svg width="19" height="22" fill="none" xmlns="http://www.w3.org/2000/svg"><path d="M9.5 12.571c-1.4 0-2.742-.551-3.732-1.534a5.218 5.218 0 0 1-1.546-3.704h2.111c0 .834.334 1.633.928 2.223.594.59 1.4.92 2.239.92.84 0 1.645-.33 2.24-.92.593-.59.927-1.39.927-2.223h2.11c0 1.39-.555 2.722-1.545 3.704A5.298 5.298 0 0 1 9.5 12.571Zm0-10.476c.84 0 1.645.331 2.24.92.593.59.927 1.39.927 2.223H6.333c0-.833.334-1.633.928-2.222.594-.59 1.4-.92 2.239-.92Zm7.389 3.143h-2.111a5.203 5.203 0 0 0-1.546-3.704 5.312 5.312 0 0 0-7.464 0 5.218 5.218 0 0 0-1.546 3.704h-2.11A2.096 2.096 0 0 0 0 7.333v12.572c0 .555.222 1.088.618 1.481S1.551 22 2.111 22H16.89c.56 0 1.097-.22 1.493-.614.396-.393.618-.925.618-1.481V7.333c0-1.163-.95-2.095-2.111-2.095Z" fill="#000"/></svg>