<svg xmlns="http://www.w3.org/2000/svg" width="48" height="31" fill="none" xmlns:v="https://vecta.io/nano"><style><![CDATA[.B{fill:#90ca50}.C{color-interpolation-filters:sRGB}.D{flood-opacity:0}]]></style><g clip-path="url(#N)" class="B"><g filter="url(#A)"><path d="M19.765 26.677L11.48 2.944a.8.8 0 0 0-.34-.421.8.8 0 0 0-.65-.054l-5.042 2.27a1.4 1.4 0 0 0-.402.345c-.66.828-.112 2.127-.069 2.226l7.759 21.78a1 1 0 0 1 .078.186c.031.113.07.251.007.364-.083.147-.327.23-.485.121a.35.35 0 0 1-.134-.235Q8.406 18.919 4.609 8.31a.1.1 0 0 0-.019-.038.15.15 0 0 0-.097-.061c-.05-.008-.087.014-.12.032a.3.3 0 0 0-.068.056A26.3 26.3 0 0 1 .44 11.603a1.44 1.44 0 0 0-.374.6 1.49 1.49 0 0 0 .053 1.016l6.062 17.167c.018.056.081.263.267.418a.8.8 0 0 0 .408.182 4.14 4.14 0 0 0 .323.014l.29-.012c.236-.027.4-.143.512-.214.199-.124.47-.213 1.013-.392.382-.126.574-.189.83-.221a3.1 3.1 0 0 1 1.301.121c.236.068.57.19.936.421a1.42 1.42 0 0 0 .432.068c.22 0 .393-.056.64-.137a3.85 3.85 0 0 0 .368-.14l3.083-1.554 2.878-1.41a.7.7 0 0 0 .305-.316.68.68 0 0 0-.002-.537M9.23 25.702a.75.75 0 0 1-.743.753.75.75 0 0 1-.742-.753c0-.416.332-.753.742-.753a.75.75 0 0 1 .743.753m-.656-1.83a.75.75 0 0 1-.742.753.75.75 0 0 1-.742-.753c0-.416.332-.753.742-.753s.742.337.742.753m-.653-1.828a.75.75 0 0 1-.742.753.75.75 0 0 1-.742-.753c0-.416.332-.753.742-.753s.742.337.742.753m-.656-1.831a.75.75 0 0 1-.742.753.75.75 0 0 1-.743-.753.75.75 0 0 1 .743-.753c.41 0 .742.337.742.753m-.642-1.826a.75.75 0 0 1-.742.753.75.75 0 0 1-.742-.753c0-.416.332-.754.742-.754s.742.338.742.754m-.655-1.83a.75.75 0 0 1-.742.753.75.75 0 0 1-.742-.753c0-.416.332-.753.742-.753s.742.337.742.753m-.654-1.825a.75.75 0 0 1-.742.753.75.75 0 0 1-.742-.753c0-.416.332-.753.742-.753s.742.337.742.753m-1.398-2.584c.41 0 .742.337.742.753a.75.75 0 0 1-.742.753.75.75 0 0 1-.743-.753.75.75 0 0 1 .743-.753m-2.803.533c0-.416.332-.753.742-.753s.742.337.742.753a.75.75 0 0 1-.742.753.75.75 0 0 1-.742-.753m.656 1.83c0-.416.332-.753.742-.753a.75.75 0 0 1 .743.753.75.75 0 0 1-.743.753.75.75 0 0 1-.742-.753m.653 1.825c0-.416.332-.753.742-.753a.75.75 0 0 1 .743.753.75.75 0 0 1-.743.753.75.75 0 0 1-.742-.753m.656 1.83a.75.75 0 0 1 .743-.753c.41 0 .742.337.742.753a.75.75 0 0 1-.742.753.75.75 0 0 1-.743-.753m.642 1.826c0-.416.332-.753.742-.753s.742.337.742.753a.75.75 0 0 1-.742.753.75.75 0 0 1-.742-.753m.656 1.831c0-.416.332-.753.742-.753a.75.75 0 0 1 .743.753.75.75 0 0 1-.743.753.75.75 0 0 1-.742-.753m.652 1.828c0-.416.333-.753.742-.753a.75.75 0 0 1 .743.753.75.75 0 0 1-.743.753.75.75 0 0 1-.742-.753m.657 1.83c0-.416.332-.753.742-.753s.742.337.742.753a.75.75 0 0 1-.742.753.75.75 0 0 1-.742-.753m.648 1.828c0-.416.332-.753.742-.753s.742.337.742.753a.75.75 0 0 1-.742.753.75.75 0 0 1-.742-.753m1.394 2.583a.75.75 0 0 1-.742-.753c0-.416.332-.753.742-.753s.742.337.742.753a.75.75 0 0 1-.742.753m1.408-1.61a.75.75 0 0 1-.742-.752c0-.416.332-.753.742-.753a.75.75 0 0 1 .743.753.75.75 0 0 1-.743.753"/></g><g filter="url(#B)"><path d="m13.798 1.5-.69 2.649a.95.95 0 0 0-.006.396l7.312 22.008c.003.003.048.066.127.06a.15.15 0 0 0 .115-.079l.043-.175.109-.503a.696.696 0 0 0-.012-.415L14.133 1.498a.18.18 0 0 0-.18-.121.18.18 0 0 0-.155.12z"/></g><g filter="url(#C)"><path d="m16.556.749-.908 2.444a.87.87 0 0 0-.022.457l5.703 22.443c.018.099.09.168.166.17.06.003.103-.036.116-.047a4.6 4.6 0 0 0 .248-.728.6.6 0 0 0-.016-.331L16.906.79a.186.186 0 0 0-.17-.16.18.18 0 0 0-.18.12z"/></g><g filter="url(#D)"><path d="M19.594.36 18.51 2.566a.5.5 0 0 0-.063.151c-.027.112-.005.204-.002.222.03.154 1.664 9.738 3.91 22.91.027.054.08.09.137.093a.17.17 0 0 0 .163-.12l.217-.557q.014-.099.021-.216a3 3 0 0 0 .001-.27L19.932.322A.18.18 0 0 0 19.774.2c-.085-.002-.165.066-.18.16"/></g><g filter="url(#E)"><path d="m22.398.084-1.226 1.965a.56.56 0 0 0-.114.443l2.483 23.147c.002.005.046.098.14.108a.186.186 0 0 0 .19-.132q.114-.256.226-.514a1.2 1.2 0 0 0 .09-.474L22.704.164a.17.17 0 0 0-.13-.16.165.165 0 0 0-.176.08"/></g><g filter="url(#F)"><path d="m25.264.214-1.39 1.877a.72.72 0 0 0-.153.468l.955 23.24c0 .059.03.111.08.137.061.032.142.011.19-.052l.386-.672a.4.4 0 0 0 .046-.207L25.547.272a.16.16 0 0 0-.106-.129.156.156 0 0 0-.177.072z"/></g><g filter="url(#G)"><path d="M28.222.625 26.67 2.509a.56.56 0 0 0-.148.482l-.717 22.832a.19.19 0 0 0 .112.176c.083.032.185-.006.232-.097l.323-.514a.9.9 0 0 0 .113-.4L28.549.736a.19.19 0 0 0-.092-.164c-.073-.041-.174-.021-.236.054z"/></g><g filter="url(#H)"><path d="M30.87 1.224 29.384 2.99a.85.85 0 0 0-.243.567l-2.195 22.575c0 .006.014.102.098.142.07.032.157.011.21-.054l.325-.469a1.1 1.1 0 0 0 .18-.319L31.19 1.284a.17.17 0 0 0-.111-.158c-.077-.026-.17.013-.208.097z"/></g><g filter="url(#I)"><path d="M33.662 1.738l-1.777 1.874a.55.55 0 0 0-.135.307l-3.63 22.316c0 .008 0 .098.065.144s.171.03.238-.05l.327-.327a1.15 1.15 0 0 0 .27-.594l4.934-23.597a.16.16 0 0 0-.292-.073"/></g><g filter="url(#J)"><path d="M36.146 2.926l-1.804 1.783a.6.6 0 0 0-.222.402l-4.906 21.614a.18.18 0 0 0 .055.2c.07.052.176.039.237-.037l.408-.41a1.3 1.3 0 0 0 .231-.485l6.318-22.875a.19.19 0 0 0-.317-.193z"/></g><g filter="url(#K)"><path d="m38.922 3.996-2.079 1.536a.8.8 0 0 0-.32.442l-6.17 21.183a.18.18 0 0 0 .059.184c.063.05.156.048.221-.008a2.4 2.4 0 0 0 .526-.461 1.5 1.5 0 0 0 .225-.493l7.825-22.175a.19.19 0 0 0-.077-.232.18.18 0 0 0-.211.024"/></g><g filter="url(#L)"><path d="m41.286 5.185-1.898 1.388a.73.73 0 0 0-.329.453L31.346 27.87a.16.16 0 0 0 .05.178c.053.043.13.043.185.002a2.6 2.6 0 0 0 .515-.373 1.3 1.3 0 0 0 .312-.46Q36.99 16.31 41.571 5.405a.19.19 0 0 0-.028-.222.187.187 0 0 0-.257 0z"/></g><g filter="url(#M)"><path d="M47.996 8.258a.6.6 0 0 0-.13-.307 34.5 34.5 0 0 0-4.73-2.559.67.67 0 0 0-.526-.107.68.68 0 0 0-.446.36l-9.287 22.378a.76.76 0 0 0-.023.5.77.77 0 0 0 .406.46 44 44 0 0 0 4.619 1.943.57.57 0 0 0 .319.054.58.58 0 0 0 .355-.19l2.172-4.012a7 7 0 0 0 .151-1.006l.043-.3.113-.668c.113-.615 1.71-4.53 2.026-5.326l2.047-5.289s.149-.484.414-.736l.171-.163a5.34 5.34 0 0 0 .354-.391 1.6 1.6 0 0 0 .338-.535l1.54-3.756a.6.6 0 0 0 .074-.35m-7.724 6.957a.75.75 0 0 1 .988-.403.77.77 0 0 1 .397 1.003.75.75 0 0 1-.988.402.77.77 0 0 1-.397-1.002m-.787 1.87a.75.75 0 0 1 .988-.402c.382.165.56.613.397 1.002a.75.75 0 0 1-.988.402.77.77 0 0 1-.397-1.002m-.18 4.342a.75.75 0 0 1-.988.403.77.77 0 0 1-.397-1.002.75.75 0 0 1 .988-.403c.381.165.56.614.396 1.002m-.202-1.467a.77.77 0 0 1-.396-1.002.75.75 0 0 1 .987-.403.77.77 0 0 1 .397 1.002.75.75 0 0 1-.988.403m2.043 2.265a.75.75 0 0 1-.988.402.77.77 0 0 1-.397-1.002.75.75 0 0 1 .988-.402.77.77 0 0 1 .397 1.002m.76-1.882a.75.75 0 0 1-.988.402.77.77 0 0 1-.397-1.002.75.75 0 0 1 .988-.402.77.77 0 0 1 .397 1.002m.805-1.862a.75.75 0 0 1-.987.403.77.77 0 0 1-.397-1.002.75.75 0 0 1 .988-.403c.382.165.56.614.396 1.002m.76-1.88a.75.75 0 0 1-.988.402.77.77 0 0 1-.396-1.002.75.75 0 0 1 .987-.403.77.77 0 0 1 .397 1.002"/></g></g><defs><filter id="A" width="19.822" height="32.577" x="0" y="2.423" filterUnits="userSpaceOnUse" class="C"><feFlood class="D"/><feBlend in="SourceGraphic" result="B"/><feColorMatrix in="SourceAlpha" result="C" values="0 0 0 0 0 0 0 0 0 0 0 0 0 0 0 0 0 0 127 0"/><feOffset dy="4"/><feGaussianBlur stdDeviation="2"/><feComposite in2="C" k2="-1" k3="1" operator="arithmetic"/><feColorMatrix values="0 0 0 0 0 0 0 0 0 0 0 0 0 0 0 0 0 0 0.25 0"/><feBlend in2="B"/></filter><filter id="B" width="7.75" height="29.237" x="13.084" y="1.377" filterUnits="userSpaceOnUse" class="C"><feFlood class="D"/><feBlend in="SourceGraphic" result="B"/><feColorMatrix in="SourceAlpha" result="C" values="0 0 0 0 0 0 0 0 0 0 0 0 0 0 0 0 0 0 127 0"/><feOffset dy="4"/><feGaussianBlur stdDeviation="2"/><feComposite in2="C" k2="-1" k3="1" operator="arithmetic"/><feColorMatrix values="0 0 0 0 0 0 0 0 0 0 0 0 0 0 0 0 0 0 0.25 0"/><feBlend in2="B"/></filter><filter id="C" width="6.27" height="29.633" x="15.605" y=".63" filterUnits="userSpaceOnUse" class="C"><feFlood class="D"/><feBlend in="SourceGraphic" result="B"/><feColorMatrix in="SourceAlpha" result="C" values="0 0 0 0 0 0 0 0 0 0 0 0 0 0 0 0 0 0 127 0"/><feOffset dy="4"/><feGaussianBlur stdDeviation="2"/><feComposite in2="C" k2="-1" k3="1" operator="arithmetic"/><feColorMatrix values="0 0 0 0 0 0 0 0 0 0 0 0 0 0 0 0 0 0 0.25 0"/><feBlend in2="B"/></filter><filter id="D" width="4.465" height="29.741" x="18.434" y=".2" filterUnits="userSpaceOnUse" class="C"><feFlood class="D"/><feBlend in="SourceGraphic" result="B"/><feColorMatrix in="SourceAlpha" result="C" values="0 0 0 0 0 0 0 0 0 0 0 0 0 0 0 0 0 0 127 0"/><feOffset dy="4"/><feGaussianBlur stdDeviation="2"/><feComposite in2="C" k2="-1" k3="1" operator="arithmetic"/><feColorMatrix values="0 0 0 0 0 0 0 0 0 0 0 0 0 0 0 0 0 0 0.25 0"/><feBlend in2="B"/></filter><filter id="E" width="3.137" height="29.747" x="21.051" y=".001" filterUnits="userSpaceOnUse" class="C"><feFlood class="D"/><feBlend in="SourceGraphic" result="B"/><feColorMatrix in="SourceAlpha" result="C" values="0 0 0 0 0 0 0 0 0 0 0 0 0 0 0 0 0 0 127 0"/><feOffset dy="4"/><feGaussianBlur stdDeviation="2"/><feComposite in2="C" k2="-1" k3="1" operator="arithmetic"/><feColorMatrix values="0 0 0 0 0 0 0 0 0 0 0 0 0 0 0 0 0 0 0.25 0"/><feBlend in2="B"/></filter><filter id="F" width="1.826" height="29.814" x="23.721" y=".137" filterUnits="userSpaceOnUse" class="C"><feFlood class="D"/><feBlend in="SourceGraphic" result="B"/><feColorMatrix in="SourceAlpha" result="C" values="0 0 0 0 0 0 0 0 0 0 0 0 0 0 0 0 0 0 127 0"/><feOffset dy="4"/><feGaussianBlur stdDeviation="2"/><feComposite in2="C" k2="-1" k3="1" operator="arithmetic"/><feColorMatrix values="0 0 0 0 0 0 0 0 0 0 0 0 0 0 0 0 0 0 0.25 0"/><feBlend in2="B"/></filter><filter id="G" width="2.744" height="29.459" x="25.805" y=".551" filterUnits="userSpaceOnUse" class="C"><feFlood class="D"/><feBlend in="SourceGraphic" result="B"/><feColorMatrix in="SourceAlpha" result="C" values="0 0 0 0 0 0 0 0 0 0 0 0 0 0 0 0 0 0 127 0"/><feOffset dy="4"/><feGaussianBlur stdDeviation="2"/><feComposite in2="C" k2="-1" k3="1" operator="arithmetic"/><feColorMatrix values="0 0 0 0 0 0 0 0 0 0 0 0 0 0 0 0 0 0 0.25 0"/><feBlend in2="B"/></filter><filter id="H" width="4.244" height="29.172" x="26.945" y="1.117" filterUnits="userSpaceOnUse" class="C"><feFlood class="D"/><feBlend in="SourceGraphic" result="B"/><feColorMatrix in="SourceAlpha" result="C" values="0 0 0 0 0 0 0 0 0 0 0 0 0 0 0 0 0 0 127 0"/><feOffset dy="4"/><feGaussianBlur stdDeviation="2"/><feComposite in2="C" k2="-1" k3="1" operator="arithmetic"/><feColorMatrix values="0 0 0 0 0 0 0 0 0 0 0 0 0 0 0 0 0 0 0.25 0"/><feBlend in2="B"/></filter><filter id="I" width="5.834" height="28.738" x="28.119" y="1.666" filterUnits="userSpaceOnUse" class="C"><feFlood class="D"/><feBlend in="SourceGraphic" result="B"/><feColorMatrix in="SourceAlpha" result="C" values="0 0 0 0 0 0 0 0 0 0 0 0 0 0 0 0 0 0 127 0"/><feOffset dy="4"/><feGaussianBlur stdDeviation="2"/><feComposite in2="C" k2="-1" k3="1" operator="arithmetic"/><feColorMatrix values="0 0 0 0 0 0 0 0 0 0 0 0 0 0 0 0 0 0 0.25 0"/><feBlend in2="B"/></filter><filter id="J" width="7.27" height="28.092" x="29.203" y="2.865" filterUnits="userSpaceOnUse" class="C"><feFlood class="D"/><feBlend in="SourceGraphic" result="B"/><feColorMatrix in="SourceAlpha" result="C" values="0 0 0 0 0 0 0 0 0 0 0 0 0 0 0 0 0 0 127 0"/><feOffset dy="4"/><feGaussianBlur stdDeviation="2"/><feComposite in2="C" k2="-1" k3="1" operator="arithmetic"/><feColorMatrix values="0 0 0 0 0 0 0 0 0 0 0 0 0 0 0 0 0 0 0.25 0"/><feBlend in2="B"/></filter><filter id="K" width="8.875" height="27.428" x="30.348" y="3.949" filterUnits="userSpaceOnUse" class="C"><feFlood class="D"/><feBlend in="SourceGraphic" result="B"/><feColorMatrix in="SourceAlpha" result="C" values="0 0 0 0 0 0 0 0 0 0 0 0 0 0 0 0 0 0 127 0"/><feOffset dy="4"/><feGaussianBlur stdDeviation="2"/><feComposite in2="C" k2="-1" k3="1" operator="arithmetic"/><feColorMatrix values="0 0 0 0 0 0 0 0 0 0 0 0 0 0 0 0 0 0 0.25 0"/><feBlend in2="B"/></filter><filter id="L" width="10.258" height="26.947" x="31.336" y="5.133" filterUnits="userSpaceOnUse" class="C"><feFlood class="D"/><feBlend in="SourceGraphic" result="B"/><feColorMatrix in="SourceAlpha" result="C" values="0 0 0 0 0 0 0 0 0 0 0 0 0 0 0 0 0 0 127 0"/><feOffset dy="4"/><feGaussianBlur stdDeviation="2"/><feComposite in2="C" k2="-1" k3="1" operator="arithmetic"/><feColorMatrix values="0 0 0 0 0 0 0 0 0 0 0 0 0 0 0 0 0 0 0.25 0"/><feBlend in2="B"/></filter><filter id="M" width="15.178" height="29.715" x="32.822" y="5.269" filterUnits="userSpaceOnUse" class="C"><feFlood class="D"/><feBlend in="SourceGraphic" result="B"/><feColorMatrix in="SourceAlpha" result="C" values="0 0 0 0 0 0 0 0 0 0 0 0 0 0 0 0 0 0 127 0"/><feOffset dy="4"/><feGaussianBlur stdDeviation="2"/><feComposite in2="C" k2="-1" k3="1" operator="arithmetic"/><feColorMatrix values="0 0 0 0 0 0 0 0 0 0 0 0 0 0 0 0 0 0 0.25 0"/><feBlend in2="B"/></filter><clipPath id="N"><path fill="#fff" d="M0 0h48v31H0z"/></clipPath></defs></svg>