<svg width="21" height="24" viewBox="0 0 21 24" fill="none" xmlns="http://www.w3.org/2000/svg">
<path d="M18.6963 8.20117C19.3183 8.16305 19.8582 8.35396 20.3154 8.77441C20.7725 9.19485 21.0007 9.71081 21 10.3223V18.5234C21 19.1351 20.796 19.6565 20.3877 20.0869C19.9794 20.5173 19.4639 20.7506 18.8418 20.7881C17.5974 20.9792 16.3913 21.2947 15.2246 21.7344C14.058 22.174 12.9691 22.757 11.958 23.4834C11.7441 23.6554 11.5161 23.7845 11.2734 23.8701C11.0308 23.9558 10.773 23.9992 10.5 24C10.227 24.0008 9.96923 23.9575 9.72656 23.8711C9.48393 23.7847 9.25586 23.6554 9.04199 23.4834C8.03094 22.757 6.94197 22.174 5.77539 21.7344C4.60872 21.2947 3.40265 20.9792 2.1582 20.7881C1.53609 20.7498 1.02059 20.5166 0.612305 20.0869C0.204004 19.6572 3.25693e-05 19.1358 0 18.5234V10.3223C7.75169e-05 9.71085 0.228529 9.19483 0.685547 8.77441C1.14278 8.35396 1.68245 8.16305 2.30371 8.20117C3.83976 8.43055 5.30372 8.87434 6.69434 9.53418C8.085 10.1941 9.35356 11.05 10.5 12.1006C11.6472 11.0492 12.916 10.1931 14.3066 9.5332C15.6973 8.87332 17.161 8.4298 18.6963 8.20117ZM2.36523 15.5137C2.21095 15.4999 2.04602 15.4921 1.92188 15.5117C1.64925 15.555 1.46274 15.8114 1.50586 16.084C1.54914 16.3566 1.80552 16.5431 2.07812 16.5C2.08603 16.5001 2.14505 16.498 2.27637 16.5098C2.41316 16.522 2.59711 16.5464 2.81934 16.5859C3.2632 16.6649 3.84764 16.802 4.50195 17.0176C5.81572 17.4505 7.38086 18.1885 8.66113 19.3682C8.86422 19.5551 9.1811 19.5419 9.36816 19.3389C9.55509 19.1358 9.54187 18.8189 9.33887 18.6318C7.92004 17.3245 6.21277 16.5288 4.81543 16.0684C4.11457 15.8374 3.4836 15.6886 2.99414 15.6016C2.74962 15.5581 2.53651 15.529 2.36523 15.5137ZM18.6348 15.5137C18.4635 15.529 18.2504 15.5581 18.0059 15.6016C17.5164 15.6886 16.8854 15.8374 16.1846 16.0684C14.7872 16.5288 13.08 17.3245 11.6611 18.6318C11.4581 18.8189 11.4449 19.1358 11.6318 19.3389C11.8189 19.5419 12.1358 19.5551 12.3389 19.3682C13.6191 18.1885 15.1843 17.4505 16.498 17.0176C17.1524 16.802 17.7368 16.6649 18.1807 16.5859C18.4029 16.5464 18.5868 16.522 18.7236 16.5098C18.8549 16.498 18.914 16.5001 18.9219 16.5C19.1945 16.5431 19.4509 16.3566 19.4941 16.084C19.5373 15.8114 19.3508 15.555 19.0781 15.5117C18.954 15.4921 18.7891 15.4999 18.6348 15.5137ZM2.36523 13.5137C2.21095 13.4999 2.04602 13.4921 1.92188 13.5117C1.64925 13.555 1.46274 13.8114 1.50586 14.084C1.54914 14.3566 1.80552 14.5431 2.07812 14.5C2.08603 14.5001 2.14505 14.498 2.27637 14.5098C2.41316 14.522 2.59711 14.5464 2.81934 14.5859C3.2632 14.6649 3.84764 14.802 4.50195 15.0176C5.81572 15.4505 7.38086 16.1885 8.66113 17.3682C8.86422 17.5551 9.1811 17.5419 9.36816 17.3389C9.55509 17.1358 9.54187 16.8189 9.33887 16.6318C7.92004 15.3245 6.21277 14.5288 4.81543 14.0684C4.11457 13.8374 3.4836 13.6886 2.99414 13.6016C2.74962 13.5581 2.53651 13.529 2.36523 13.5137ZM18.6348 13.5137C18.4635 13.529 18.2504 13.5581 18.0059 13.6016C17.5164 13.6886 16.8854 13.8374 16.1846 14.0684C14.7872 14.5288 13.08 15.3245 11.6611 16.6318C11.4581 16.8189 11.4449 17.1358 11.6318 17.3389C11.8189 17.5419 12.1358 17.5551 12.3389 17.3682C13.6191 16.1885 15.1843 15.4505 16.498 15.0176C17.1524 14.802 17.7368 14.6649 18.1807 14.5859C18.4029 14.5464 18.5868 14.522 18.7236 14.5098C18.8549 14.498 18.914 14.5001 18.9219 14.5C19.1945 14.5431 19.4509 14.3566 19.4941 14.084C19.5373 13.8114 19.3508 13.555 19.0781 13.5117C18.954 13.4921 18.7891 13.4999 18.6348 13.5137ZM2.36523 11.5137C2.21095 11.4999 2.04602 11.4921 1.92188 11.5117C1.64925 11.555 1.46274 11.8114 1.50586 12.084C1.54914 12.3566 1.80552 12.5431 2.07812 12.5C2.08603 12.5001 2.14505 12.498 2.27637 12.5098C2.41316 12.522 2.59711 12.5464 2.81934 12.5859C3.2632 12.6649 3.84764 12.802 4.50195 13.0176C5.81572 13.4505 7.38086 14.1885 8.66113 15.3682C8.86422 15.5551 9.1811 15.5419 9.36816 15.3389C9.55509 15.1358 9.54187 14.8189 9.33887 14.6318C7.92004 13.3245 6.21277 12.5288 4.81543 12.0684C4.11457 11.8374 3.4836 11.6886 2.99414 11.6016C2.74962 11.5581 2.53651 11.529 2.36523 11.5137ZM18.6348 11.5137C18.4635 11.529 18.2504 11.5581 18.0059 11.6016C17.5164 11.6886 16.8854 11.8374 16.1846 12.0684C14.7872 12.5288 13.08 13.3245 11.6611 14.6318C11.4581 14.8189 11.4449 15.1358 11.6318 15.3389C11.8189 15.5419 12.1358 15.5551 12.3389 15.3682C13.6191 14.1885 15.1843 13.4505 16.498 13.0176C17.1524 12.802 17.7368 12.6649 18.1807 12.5859C18.4029 12.5464 18.5868 12.522 18.7236 12.5098C18.8549 12.498 18.914 12.5001 18.9219 12.5C19.1945 12.5431 19.4509 12.3566 19.4941 12.084C19.5373 11.8114 19.3508 11.555 19.0781 11.5117C18.954 11.4921 18.7891 11.4999 18.6348 11.5137ZM10.5 0C11.7833 4.45104e-07 12.882 0.44921 13.7959 1.34766C14.7098 2.2461 15.167 3.32625 15.167 4.58789C15.167 5.84951 14.7098 6.9297 13.7959 7.82812C12.882 8.72654 11.7833 9.17578 10.5 9.17578C9.21669 9.17578 8.11798 8.72654 7.2041 7.82812C6.29023 6.9297 5.83303 5.84951 5.83301 4.58789C5.83301 3.32625 6.29023 2.2461 7.2041 1.34766C8.11799 0.44921 9.21667 0 10.5 0Z" fill="#90CA50"/>
</svg>
