<svg width="44" height="43" viewBox="0 0 44 43" fill="none" xmlns="http://www.w3.org/2000/svg">
<g filter="url(#filter0_i_4037_2987)">
<path d="M23.9524 3.33623C23.555 2.51965 22.7152 2 21.7928 2C20.8705 2 20.0382 2.51965 19.6333 3.33623L14.8117 13.1575L4.04383 14.7313C3.14401 14.8649 2.39416 15.4885 2.11671 16.3422C1.83926 17.1959 2.06422 18.1387 2.70909 18.7697L10.5226 26.4233L8.67792 37.2394C8.52795 38.1302 8.90288 39.0359 9.64523 39.5629C10.3876 40.09 11.3699 40.1568 12.1797 39.7337L21.8003 34.6486L31.421 39.7337C32.2308 40.1568 33.2131 40.0974 33.9555 39.5629C34.6978 39.0284 35.0727 38.1302 34.9228 37.2394L33.0706 26.4233L40.8841 18.7697C41.529 18.1387 41.7614 17.1959 41.4765 16.3422C41.1915 15.4885 40.4492 14.8649 39.5494 14.7313L28.774 13.1575L23.9524 3.33623Z" fill="#90CA50"/>
</g>
<path d="M21.793 1C23.0902 1.00005 24.2834 1.73112 24.8516 2.89844H24.8506L29.4395 12.2432L39.6943 13.7422H39.6963C40.9668 13.9309 42.02 14.8129 42.4248 16.0254C42.8324 17.2465 42.498 18.5879 41.583 19.4834L34.1445 26.7705L35.9082 37.0703L35.9092 37.0732C36.1236 38.347 35.5853 39.6212 34.54 40.374C33.4833 41.1348 32.0947 41.214 30.958 40.6201L30.9541 40.6182L21.7998 35.7783L12.6475 40.6182L12.6426 40.6201C11.5004 41.2168 10.1158 41.123 9.06641 40.3779C8.01226 39.6294 7.47762 38.3431 7.69141 37.0732L7.69238 37.0713L9.44824 26.7705L2.00977 19.4844C1.08984 18.5842 0.772639 17.2436 1.16602 16.0332C1.56383 14.8092 2.63156 13.9302 3.89648 13.7422H3.89941L14.1455 12.2432L18.7354 2.89551L18.7373 2.8916C19.3111 1.73474 20.4908 1 21.793 1Z" stroke="#FEF35A" stroke-width="2"/>
<defs>
<filter id="filter0_i_4037_2987" x="0" y="0" width="48.5977" height="47.0125" filterUnits="userSpaceOnUse" color-interpolation-filters="sRGB">
<feFlood flood-opacity="0" result="BackgroundImageFix"/>
<feBlend mode="normal" in="SourceGraphic" in2="BackgroundImageFix" result="shape"/>
<feColorMatrix in="SourceAlpha" type="matrix" values="0 0 0 0 0 0 0 0 0 0 0 0 0 0 0 0 0 0 127 0" result="hardAlpha"/>
<feOffset dx="5" dy="5"/>
<feGaussianBlur stdDeviation="5"/>
<feComposite in2="hardAlpha" operator="arithmetic" k2="-1" k3="1"/>
<feColorMatrix type="matrix" values="0 0 0 0 0 0 0 0 0 0 0 0 0 0 0 0 0 0 0.25 0"/>
<feBlend mode="normal" in2="shape" result="effect1_innerShadow_4037_2987"/>
</filter>
</defs>
</svg>
