<svg width="53" height="30" viewBox="0 0 53 30" fill="none" xmlns="http://www.w3.org/2000/svg">
<path d="M48.5833 0H19.875C17.4458 0 15.4583 2.025 15.4583 4.5V24.75C15.4583 27.2475 17.4458 29.25 19.875 29.25H48.5833C51.0346 29.25 53 27.2475 53 24.75V4.5C53 2.025 51.0346 0 48.5833 0ZM48.5833 24.75H19.875V8.2575L34.2292 15.75L48.5833 8.2575V24.75ZM34.2292 11.9475L19.875 4.5H48.5833L34.2292 11.9475ZM11.0417 24.75C11.0417 25.1325 11.1079 25.4925 11.1521 25.875H2.20833C0.989333 25.875 0 24.8625 0 23.625C0 22.3875 0.989333 21.375 2.20833 21.375H11.0417V24.75ZM6.625 3.375H11.1521C11.1079 3.7575 11.0417 4.1175 11.0417 4.5V7.875H6.625C5.41042 7.875 4.41667 6.8625 4.41667 5.625C4.41667 4.3875 5.41042 3.375 6.625 3.375ZM2.20833 14.625C2.20833 13.3875 3.20208 12.375 4.41667 12.375H11.0417V16.875H4.41667C3.20208 16.875 2.20833 15.8625 2.20833 14.625Z" fill="black"/>
</svg>
